<?xml version="1.0" encoding="utf-8"?>
<!-- Generator: Adobe Illustrator 19.2.0, SVG Export Plug-In . SVG Version: 6.00 Build 0)  -->
<svg version="1.1" id="Layer_1" xmlns="http://www.w3.org/2000/svg" xmlns:xlink="http://www.w3.org/1999/xlink" x="0px" y="0px"
	 viewBox="0 0 600 600" style="enable-background:new 0 0 600 600;" xml:space="preserve">
<style type="text/css">
	.st0{fill:none;stroke:#A53737;stroke-width:12;stroke-miterlimit:10;}
	.st1{fill:#F04F6C;}
	.st2{opacity:0.3;fill:#B53535;}
	.st3{fill:none;stroke:#A53737;stroke-width:8;stroke-miterlimit:10;}
	.st4{fill:#FFFFFF;}
	.st5{fill:none;stroke:#A53737;stroke-width:8;stroke-linecap:round;stroke-linejoin:round;stroke-miterlimit:10;}
	.st6{fill:#A53737;}
	.st7{fill:#B53535;}
	.st8{fill:#FFFFFF;stroke:#A53737;stroke-width:4;stroke-linecap:round;stroke-linejoin:round;stroke-miterlimit:10;}
	.st9{fill:#F76CB5;stroke:#CE4785;stroke-width:3;stroke-linecap:round;stroke-linejoin:round;}
	.st10{fill:#CE4785;}
	.st11{fill:#FFA8D1;stroke:#CE4785;stroke-width:3;stroke-linecap:round;stroke-linejoin:round;}
	.st12{fill:#4CA950;stroke:#4C7C62;stroke-linecap:round;stroke-linejoin:round;}
	.st13{fill:#C40223;stroke:#9B041D;stroke-width:2;stroke-linecap:round;stroke-linejoin:round;}
	.st14{fill:none;stroke:#9B041D;stroke-linecap:round;stroke-linejoin:round;}
	.st15{fill:none;stroke:#4C7C62;stroke-linecap:round;stroke-linejoin:round;}
	.st16{fill:none;stroke:#7A000F;stroke-linecap:round;stroke-linejoin:round;}
	.st17{opacity:0.4;fill:#63B2E7;}
	.st18{fill:none;stroke:#63B2E7;stroke-width:3;stroke-linecap:round;stroke-linejoin:round;}
</style>
<g>
	<g>
		<path class="st0" d="M283.2,91.1c-26.8-0.1-51.9,3.8-77.5,17.7c-4.4,2.4-8.8,4.8-13.1,7.5c-15.5,9.8-29.2,22.6-41.8,35.8
			c-8.9,9.4-23.3,21.4-30,32.3c-3.6,5.9-2.6,13.7-5.1,20.1c-2.2,5.4-5.7,9.3-6.8,15.2c-0.9,5.1-0.7,10.8-1.7,16.1
			c-2.6,14.9-3.2,29.5-4.7,44.5c-1.5,14.2,2.1,27.2,5,41.4c1,5.2,2.3,10.7,6.2,14.2c1.5,1.3,3.3,2.3,4.5,3.9c1.1,1.5,1.6,3.3,2,5.2
			c2.8,12.1,3.7,25.6,12.2,34.6c2.7,2.8,6.1,5.2,7.8,8.7c1.6,3.5,1.2,7.8,3.2,11.2c1.3,2.1,3.3,3.6,5.3,5
			c16.7,11.8,33.4,23.5,50.1,35.3c3.8,2.7,7.7,5.4,12.1,6.9c6.6,2.2,13.7,1.5,20.6,2.5c6.6,0.9,13,3.4,19.4,5.4
			c54.7,17,113.1-8.8,153.8-45.9c37.1-34,58.6-82.7,58.6-133.1c0-39.8-13.3-78.9-37.7-110.3c-11.8-15.2-26.1-29.5-42.7-39.3
			c-17-10.1-30.3-26.2-50.6-31c-4.8-1.1-9.7-1.6-14.6-2C306,91.9,294.4,91.1,283.2,91.1z M283.1,332.8
			c-30.2,0.6-58.6-23.2-58.6-57.2c0-15.9,6.6-31.4,18.1-42.4c4.2-4,11.4-11.5,16.5-14c7.1-3.4,12.5,1.8,19.5,2.8
			c4.6,0.7,9.6-0.9,14,0.7c6.5,2.3,9.6,10.6,16.3,12.2c2.9,0.7,5.8,0,8.8,0.1c7.2,0.3,13,5.9,16.6,11.7c2.2,3.7,4.2,7.5,5.6,11.5
			c1.1,3,2,6.1,2.8,9.2c1.4,4.9,2.7,9.9,2.6,15c-0.2,5.1-2.1,10.4-6.1,13.4c-1.4,1-3,1.8-3.9,3.2c-1,1.5-1,3.4-1.3,5.1
			c-1.5,8.7-10.4,13.9-18.3,17.9C304.9,327.6,295.7,332.5,283.1,332.8z"/>
	</g>
	<g>
		<path class="st1" d="M283.2,91.1c-26.8-0.1-51.9,3.8-77.5,17.7c-4.4,2.4-8.8,4.8-13.1,7.5c-15.5,9.8-29.2,22.6-41.8,35.8
			c-8.9,9.4-23.3,21.4-30,32.3c-3.6,5.9-2.6,13.7-5.1,20.1c-2.2,5.4-5.7,9.3-6.8,15.2c-0.9,5.1-0.7,10.8-1.7,16.1
			c-2.6,14.9-3.2,29.5-4.7,44.5c-1.5,14.2,2.1,27.2,5,41.4c1,5.2,2.3,10.7,6.2,14.2c1.5,1.3,3.3,2.3,4.5,3.9c1.1,1.5,1.6,3.3,2,5.2
			c2.8,12.1,3.7,25.6,12.2,34.6c2.7,2.8,6.1,5.2,7.8,8.7c1.6,3.5,1.2,7.8,3.2,11.2c1.3,2.1,3.3,3.6,5.3,5
			c16.7,11.8,33.4,23.5,50.1,35.3c3.8,2.7,7.7,5.4,12.1,6.9c6.6,2.2,13.7,1.5,20.6,2.5c6.6,0.9,13,3.4,19.4,5.4
			c54.7,17,113.1-8.8,153.8-45.9c37.1-34,58.6-82.7,58.6-133.1c0-39.8-13.3-78.9-37.7-110.3c-11.8-15.2-26.1-29.5-42.7-39.3
			c-17-10.1-30.3-26.2-50.6-31c-4.8-1.1-9.7-1.6-14.6-2C306,91.9,294.4,91.1,283.2,91.1z M283.1,332.8
			c-30.2,0.6-58.6-23.2-58.6-57.2c0-15.9,6.6-31.4,18.1-42.4c4.2-4,11.4-11.5,16.5-14c7.1-3.4,12.5,1.8,19.5,2.8
			c4.6,0.7,9.6-0.9,14,0.7c6.5,2.3,9.6,10.6,16.3,12.2c2.9,0.7,5.8,0,8.8,0.1c7.2,0.3,13,5.9,16.6,11.7c2.2,3.7,4.2,7.5,5.6,11.5
			c1.1,3,2,6.1,2.8,9.2c1.4,4.9,2.7,9.9,2.6,15c-0.2,5.1-2.1,10.4-6.1,13.4c-1.4,1-3,1.8-3.9,3.2c-1,1.5-1,3.4-1.3,5.1
			c-1.5,8.7-10.4,13.9-18.3,17.9C304.9,327.6,295.7,332.5,283.1,332.8z"/>
	</g>
</g>
<path class="st2" d="M198.4,525.1c1.5,1,3.6,1.9,3.9,3.2c0.3,1.2-1.1,2.4-0.9,3.6c0.3,1.6,3.1,2.5,5.5,3.1
	c21.5,5.1,45.3,2.2,68.2,2.7c28.1,0.6,56.2,6.4,83.9,4.2c17.5-1.3,34-5.8,51.6-6.7c7-0.4,14.2-0.2,21.1-0.9s13.9-2.6,17.7-6.1
	s3.3-8.9-2.4-11.4c-2.7-1.2-6-1.7-9.2-2.1c-27.9-3.7-56-7.5-84.5-7.7c-19.6-0.1-39.1,1.4-58.6,0.7c-10-0.3-20-1.3-29.9-0.7
	c-14.1,0.8-27.4,4.5-41.6,4.4c-4.2,0-8.3-0.4-12.4-0.1c-5.4,0.4-10.6,2-13.4,4.8C194.7,518.8,194.8,522.6,198.4,525.1z"/>
<g>
	<path class="st3" d="M438.7,452.8c-5.4-21-24.3-28.4-25.1-28.8c-1.5-0.6-3.3,0.2-3.9,1.7c-0.6,1.5,0.2,3.3,1.7,3.9
		c0.2,0.1,16.8,6.7,21.4,24.5c0,0,0.9,2.1,3.5,1.5C439.6,454.9,438.7,452.8,438.7,452.8z"/>
	<path class="st4" d="M438.7,452.8c-5.4-21-24.3-28.4-25.1-28.8c-1.5-0.6-3.3,0.2-3.9,1.7c-0.6,1.5,0.2,3.3,1.7,3.9
		c0.2,0.1,16.8,6.7,21.4,24.5c0,0,0.9,2.1,3.5,1.5C439.6,454.9,438.7,452.8,438.7,452.8z"/>
</g>
<g>
	<path class="st3" d="M362.9,506.9c-1.6,0-3-1.3-3-3c-0.2-17-10.5-52.7-10.6-53.1c-0.5-1.6,0.5-3.3,2.1-3.7c1.6-0.5,3.3,0.5,3.7,2.1
		c0.4,1.5,10.6,36.9,10.8,54.7C366,505.5,364.6,506.9,362.9,506.9C363,506.9,363,506.9,362.9,506.9z"/>
	<path class="st4" d="M362.9,506.9c-1.6,0-3-1.3-3-3c-0.2-17-10.5-52.7-10.6-53.1c-0.5-1.6,0.5-3.3,2.1-3.7c1.6-0.5,3.3,0.5,3.7,2.1
		c0.4,1.5,10.6,36.9,10.8,54.7C366,505.5,364.6,506.9,362.9,506.9C363,506.9,363,506.9,362.9,506.9z"/>
</g>
<g>
	<path class="st3" d="M286.1,506.9C286.1,506.9,286.1,506.9,286.1,506.9c-1.7,0-3-1.4-3-3c0.2-17.9,11.8-55.2,12.3-56.8
		c0.5-1.6,2.2-2.5,3.8-2c1.6,0.5,2.5,2.2,2,3.8c-0.1,0.4-11.8,38-12,55C289.1,505.6,287.7,506.9,286.1,506.9z"/>
	<path class="st4" d="M286.1,506.9C286.1,506.9,286.1,506.9,286.1,506.9c-1.7,0-3-1.4-3-3c0.2-17.9,11.8-55.2,12.3-56.8
		c0.5-1.6,2.2-2.5,3.8-2c1.6,0.5,2.5,2.2,2,3.8c-0.1,0.4-11.8,38-12,55C289.1,505.6,287.7,506.9,286.1,506.9z"/>
</g>
<g>
	<path class="st5" d="M289.8,502.4c0,0-5.8,1.1-8.4-1c0,0-23-1.6-29.4,11.1c0,0-1.4,2.9-0.7,3.6c1.3,1.3,4.3,0.6,10.1,0
		c5.8-0.7,23.9-1.3,23.9-1.3s3.1,0.2,3.2-2.2C288.6,510.8,289.8,502.4,289.8,502.4z"/>
	<path class="st4" d="M289.8,502.4c0,0-5.8,1.1-8.4-1c0,0-23-1.6-29.4,11.1c0,0-1.4,2.9-0.7,3.6c1.3,1.3,4.3,0.6,10.1,0
		c5.8-0.7,23.9-1.3,23.9-1.3s3.1,0.2,3.2-2.2C288.6,510.8,289.8,502.4,289.8,502.4z"/>
</g>
<g>
	<path class="st5" d="M359,502.4c0,0,5.8,1.1,8.4-1c0,0,23-1.6,29.4,11.1c0,0,1.4,2.9,0.7,3.6c-1.3,1.3-4.3,0.6-10.1,0
		c-5.8-0.7-23.9-1.3-23.9-1.3s-3.1,0.2-3.2-2.2C360.2,510.9,359,502.4,359,502.4z"/>
	<path class="st4" d="M359,502.4c0,0,5.8,1.1,8.4-1c0,0,23-1.6,29.4,11.1c0,0,1.4,2.9,0.7,3.6c-1.3,1.3-4.3,0.6-10.1,0
		c-5.8-0.7-23.9-1.3-23.9-1.3s-3.1,0.2-3.2-2.2C360.2,510.9,359,502.4,359,502.4z"/>
</g>
<path class="st6" d="M287.8,470.8c0,0,2.6-1.3,4.5-1.1s3.9,2,3.9,2l3.9-14c0,0-3.7-0.5-3.9-0.5c-0.2,0-5.8-0.1-5.8-0.1L287.8,470.8z
	"/>
<path class="st6" d="M349.8,458.9c0,0,3.5,10.9,3.6,11.2c0.1,0.2,0,0.4,0.2,0.4c1-0.8,1.4-1.8,2.7-2.6c1.1-0.6,2.7-0.6,3.8-0.5
	c1.7,0.2,0.6,0,0.6-1.4c0-1.3-0.7-3-1-4.3c-0.5-2.3-1.1-4.7-1.6-7L349.8,458.9z"/>
<path class="st7" d="M193.3,429.3c0,0,6.5,3,5.8,7.1l10.1-5.8l-7.3-7.1L193.3,429.3z"/>
<path class="st6" d="M414.5,433.2l6.5,5.2c0,0,3.4-5.2,9.9-3.4l-7.3-6.7L414.5,433.2z"/>
<g>
	<path class="st0" d="M319.9,79.6c-2.2-0.7-4.5-1.2-6.8-1.5c-8.6-1-17,1.7-25.3,3.4c-4.9,1-18.2-0.8-21.5,2.7
		c-0.9,0.9-1.1,2.2-1.7,3.3c-2.3,4.3-8.4,4-13,5.3c-6.2,1.7-11.1,7.5-11.8,13.9c-3.8,1.8-8.2,1.1-12.5,1.1c-4.2,0-9,1.3-10.8,5.1
		c-0.5,1.1-0.7,2.4-1.4,3.5c-2,3.4-7.1,3.2-10.1,5.7c-1.5,1.2-2.4,2.9-3.3,4.6c-3.1,5.9-6.4,11.9-10.2,17.4
		c-3.2,4.6-8.1,6.1-11.5,10.4c-4.9,6.1-0.2,15.6-9.9,18.1c-3.7,1-8,1-11,3.4c-1.8,1.5-2.9,3.7-3.8,5.8c-3.7,8.6-1.7,16-6.2,24.6
		c-4.1,7.8-8.7,15.3-15.8,20.8c-0.6,0.4-1.2,0.9-1.5,1.5c-0.8,1.5,0.3,3.3,0.7,5c0.5,2.1,0,4.3-0.4,6.4c-3.1,15.7,7.6,33.5-2.1,47.4
		c-2,2.8-4,6-3.8,9.4c0.2,3.2,2.3,6,4.4,8.5c7.9,9.7,11.3,15.3,13.8,27.6c2.6,12.6,3.6,31.6,14.2,40.5c2.7,2.3,6,3.8,8.1,6.7
		c4.1,5.7,1.7,14.6,6.5,19.9c2.9,3.2,7.6,4,11.7,5.7c6.5,2.8,11.4,8.3,16.7,13.1c8.4,7.9,18.1,14.3,27.8,20.6
		c3.5,2.3,7.1,4.6,11.1,5.7c6.6,1.7,13.7-0.2,20.2,1.9c4,1.3,7.5,4.1,11.5,5.5c6.1,2,12.8,0.4,19.3,0.1c19.7-0.8,40.8,10.9,58,1.4
		c5.6-3.1,9.3-6.2,15.7-7.1c5.6-0.8,9.7,0.6,15.6-2c7.7-3.4,14.2-9.2,21.9-12.6c5.6-2.5,11.8-3.7,17.2-6.6
		c7.8-4.2,13.4-11.5,18.7-18.6c8.8-11.7,17.5-23.5,26.3-35.2c5.1-6.9,10.3-13.9,13.4-21.9c1.8-4.8,2.8-9.8,3.8-14.8
		c2.5-12.6,5-25.3,7.5-37.9c3.1-15.4,8.8-36.9,4.5-52.5c-1.7-6.2-6-11.7-6.3-18.1c-0.1-1.6,0.1-3.2-0.3-4.7
		c-0.4-1.2-1.1-2.2-1.8-3.2c-3.9-5.4-10.1-11.5-12.2-17.8c-1.5-4.5-0.6-9.9-2.2-14.7c-4.2-12.2-10.1-23.1-19.9-31.8
		c-2.4-2.1-4.9-4.1-6.9-6.6c-1.6-2-2.9-4.3-4.4-6.4c-2.9-3.7-6.8-6.5-10.6-9.2c-7.7-5.4-14.8-11.6-22.4-17.1
		c-4.5-3.3-7.5-10.2-12.9-11.7c-2.5-0.7-5.3-0.2-7.8-1c-3.7-1.2-6-4.9-9.5-6.5c-5.3-2.3-12.2,0.7-16.8-2.8c-1.3-1-2.2-2.4-3.4-3.4
		c-3.2-2.6-7.8-2.2-11.9-2.6C335.8,86.7,328.1,82.2,319.9,79.6z M314.9,332.6c-0.5,0.1-1,0.1-1.5,0.2c-11.8,1.4-24.5-1.2-33-9.4
		c-4.8-4.6-11.5-10.4-13.7-16.8c-1-2.8-1.3-5.7-2.2-8.5c-0.9-2.9-2.4-5.5-3.6-8.3c-4.4-10.6-2.5-22.3-1.1-33.3
		c1.4-11.1,8-17.1,15.1-25.8c1.1-1.3,2.2-2.7,3.7-3.5c1.6-0.8,3.4-0.9,5.2-1.3c6.5-1.4,11.9-6.6,18.6-7.2c7.1-0.7,13.1,3.8,19.5,6
		c3.6,1.3,7.6,0.3,11.4,0.7c16.6,1.6,21.4,19.2,27.2,31.8c1.2,2.5,2.3,5,3.5,7.6c1.5,3.2,3,6.5,3.3,10c0.4,3.6-0.4,7.3-1.2,10.9
		c-1.2,5.4-2.4,10.9-3.6,16.3c-1.1,5.2-2.4,10.7-6.2,14.5c-2.5,2.6-6,4.1-9.3,5.6C336.7,326.4,326.1,331,314.9,332.6z"/>
	<path class="st4" d="M319.9,79.6c-2.2-0.7-4.5-1.2-6.8-1.5c-8.6-1-17,1.7-25.3,3.4c-4.9,1-18.2-0.8-21.5,2.7
		c-0.9,0.9-1.1,2.2-1.7,3.3c-2.3,4.3-8.4,4-13,5.3c-6.2,1.7-11.1,7.5-11.8,13.9c-3.8,1.8-8.2,1.1-12.5,1.1c-4.2,0-9,1.3-10.8,5.1
		c-0.5,1.1-0.7,2.4-1.4,3.5c-2,3.4-7.1,3.2-10.1,5.7c-1.5,1.2-2.4,2.9-3.3,4.6c-3.1,5.9-6.4,11.9-10.2,17.4
		c-3.2,4.6-8.1,6.1-11.5,10.4c-4.9,6.1-0.2,15.6-9.9,18.1c-3.7,1-8,1-11,3.4c-1.8,1.5-2.9,3.7-3.8,5.8c-3.7,8.6-1.7,16-6.2,24.6
		c-4.1,7.8-8.7,15.3-15.8,20.8c-0.6,0.4-1.2,0.9-1.5,1.5c-0.8,1.5,0.3,3.3,0.7,5c0.5,2.1,0,4.3-0.4,6.4c-3.1,15.7,7.6,33.5-2.1,47.4
		c-2,2.8-4,6-3.8,9.4c0.2,3.2,2.3,6,4.4,8.5c7.9,9.7,11.3,15.3,13.8,27.6c2.6,12.6,3.6,31.6,14.2,40.5c2.7,2.3,6,3.8,8.1,6.7
		c4.1,5.7,1.7,14.6,6.5,19.9c2.9,3.2,7.6,4,11.7,5.7c6.5,2.8,11.4,8.3,16.7,13.1c8.4,7.9,18.1,14.3,27.8,20.6
		c3.5,2.3,7.1,4.6,11.1,5.7c6.6,1.7,13.7-0.2,20.2,1.9c4,1.3,7.5,4.1,11.5,5.5c6.1,2,12.8,0.4,19.3,0.1c19.7-0.8,40.8,10.9,58,1.4
		c5.6-3.1,9.3-6.2,15.7-7.1c5.6-0.8,9.7,0.6,15.6-2c7.7-3.4,14.2-9.2,21.9-12.6c5.6-2.5,11.8-3.7,17.2-6.6
		c7.8-4.2,13.4-11.5,18.7-18.6c8.8-11.7,17.5-23.5,26.3-35.2c5.1-6.9,10.3-13.9,13.4-21.9c1.8-4.8,2.8-9.8,3.8-14.8
		c2.5-12.6,5-25.3,7.5-37.9c3.1-15.4,8.8-36.9,4.5-52.5c-1.7-6.2-6-11.7-6.3-18.1c-0.1-1.6,0.1-3.2-0.3-4.7
		c-0.4-1.2-1.1-2.2-1.8-3.2c-3.9-5.4-10.1-11.5-12.2-17.8c-1.5-4.5-0.6-9.9-2.2-14.7c-4.2-12.2-10.1-23.1-19.9-31.8
		c-2.4-2.1-4.9-4.1-6.9-6.6c-1.6-2-2.9-4.3-4.4-6.4c-2.9-3.7-6.8-6.5-10.6-9.2c-7.7-5.4-14.8-11.6-22.4-17.1
		c-4.5-3.3-7.5-10.2-12.9-11.7c-2.5-0.7-5.3-0.2-7.8-1c-3.7-1.2-6-4.9-9.5-6.5c-5.3-2.3-12.2,0.7-16.8-2.8c-1.3-1-2.2-2.4-3.4-3.4
		c-3.2-2.6-7.8-2.2-11.9-2.6C335.8,86.7,328.1,82.2,319.9,79.6z M314.9,332.6c-0.5,0.1-1,0.1-1.5,0.2c-11.8,1.4-24.5-1.2-33-9.4
		c-4.8-4.6-11.5-10.4-13.7-16.8c-1-2.8-1.3-5.7-2.2-8.5c-0.9-2.9-2.4-5.5-3.6-8.3c-4.4-10.6-2.5-22.3-1.1-33.3
		c1.4-11.1,8-17.1,15.1-25.8c1.1-1.3,2.2-2.7,3.7-3.5c1.6-0.8,3.4-0.9,5.2-1.3c6.5-1.4,11.9-6.6,18.6-7.2c7.1-0.7,13.1,3.8,19.5,6
		c3.6,1.3,7.6,0.3,11.4,0.7c16.6,1.6,21.4,19.2,27.2,31.8c1.2,2.5,2.3,5,3.5,7.6c1.5,3.2,3,6.5,3.3,10c0.4,3.6-0.4,7.3-1.2,10.9
		c-1.2,5.4-2.4,10.9-3.6,16.3c-1.1,5.2-2.4,10.7-6.2,14.5c-2.5,2.6-6,4.1-9.3,5.6C336.7,326.4,326.1,331,314.9,332.6z"/>
</g>
<circle class="st6" cx="304.9" cy="399.1" r="6"/>
<circle class="st6" cx="360.7" cy="398.8" r="6"/>
<path class="st8" d="M314.7,416.5c0,0,16.7,10,34.7,0"/>
<path class="st9" d="M188.7,368.9c0,0-1-2.8-4.4-2.5c-3.4,0.3-4.2,4.2-2.4,6.8s7.9,7.5,7.9,7.5s5.1-6,6.3-8.9
	c1.3-2.9-0.2-6.5-3.6-6.2C189.2,366,188.7,368.9,188.7,368.9z"/>
<path class="st9" d="M232.3,355.8c0,0,0.9-2.8-2-4.7c-2.9-1.8-5.8,0.7-6,3.9c-0.2,3.2,1.6,10.8,1.6,10.8s7.7-1.6,10.5-3.2
	c2.8-1.5,3.8-5.3,0.9-7.1C234.5,353.7,232.3,355.8,232.3,355.8z"/>
<path class="st9" d="M264.9,345.2c0,0,1.4-2.7-1.2-4.9c-2.6-2.3-5.9-0.2-6.6,2.9c-0.7,3.1-0.1,10.9-0.1,10.9s7.8-0.4,10.9-1.4
	c3-1.1,4.6-4.6,2.1-6.9C267.3,343.6,264.9,345.2,264.9,345.2z"/>
<path class="st9" d="M215.7,391.9c0,0-1-2.8-4.4-2.5s-4.2,4.2-2.3,6.8c1.8,2.6,7.9,7.5,7.9,7.5s5-6,6.3-8.9c1.3-2.9-0.2-6.5-3.6-6.2
	S215.7,391.9,215.7,391.9z"/>
<path class="st9" d="M248.9,403.9c0,0-0.9-2.9-4.3-2.7c-3.4,0.2-4.4,4-2.7,6.7s7.6,7.9,7.6,7.9s5.3-5.8,6.7-8.6
	c1.4-2.9,0.1-6.5-3.3-6.4C249.5,401,248.9,403.9,248.9,403.9z"/>
<path class="st9" d="M252.5,308.6c0,0-2.3-1.9-5.1,0.2c-2.7,2.1-1.4,5.7,1.5,7c2.9,1.3,10.7,2.3,10.7,2.3s1.2-7.8,0.7-10.9
	c-0.4-3.2-3.6-5.5-6.3-3.4S252.5,308.6,252.5,308.6z"/>
<path class="st9" d="M184.8,301.5c0,0-2.2-2-5.1-0.2c-2.9,1.9-1.8,5.6,1,7.1c2.8,1.5,10.5,3.1,10.5,3.1s1.7-7.7,1.5-10.8
	c-0.2-3.2-3.2-5.7-6.1-3.8C183.8,298.6,184.8,301.5,184.8,301.5z"/>
<path class="st9" d="M317.8,129.5c0,0-2.2-2-5.1-0.2c-2.9,1.9-1.8,5.6,1,7.1c2.8,1.5,10.5,3.1,10.5,3.1s1.7-7.7,1.5-10.8
	c-0.2-3.2-3.2-5.7-6.1-3.8C316.8,126.6,317.8,129.5,317.8,129.5z"/>
<path class="st9" d="M166.6,333c0,0,1.1-2.8-1.6-4.8c-2.7-2-5.9,0.3-6.3,3.5c-0.4,3.2,0.8,10.9,0.8,10.9s7.8-1.1,10.7-2.4
	s4.2-5,1.5-7S166.6,333,166.6,333z"/>
<path class="st9" d="M204.4,339.9c0,0,1.9-2.3-0.2-5.1s-5.7-1.4-7,1.6s-2.2,10.7-2.2,10.7s7.8,1.1,10.9,0.7c3.2-0.5,5.4-3.6,3.4-6.3
	C207.1,338.7,204.4,339.9,204.4,339.9z"/>
<path class="st9" d="M222.5,295c0,0-0.5-3-3.9-3.3c-3.4-0.3-4.9,3.3-3.6,6.2c1.3,2.9,6.3,8.9,6.3,8.9s6.1-4.9,7.9-7.5
	c1.8-2.6,1.1-6.4-2.3-6.8C223.6,292.2,222.5,295,222.5,295z"/>
<path class="st9" d="M467.5,279c0,0-0.5-3-3.9-3.3c-3.4-0.3-4.9,3.3-3.6,6.2s6.3,8.9,6.3,8.9s6.1-4.9,7.9-7.5s1.1-6.4-2.3-6.8
	C468.6,276.2,467.5,279,467.5,279z"/>
<path class="st9" d="M362.5,135c0,0-0.5-3-3.9-3.3s-4.9,3.3-3.6,6.2c1.3,2.9,6.3,8.9,6.3,8.9s6.1-4.9,7.9-7.5s1.1-6.4-2.3-6.8
	C363.6,132.2,362.5,135,362.5,135z"/>
<path class="st9" d="M227.1,267c0,0-2.9-0.6-4.4,2.4c-1.5,3.1,1.3,5.7,4.5,5.6c3.2-0.2,10.6-2.7,10.6-2.7s-2.4-7.5-4.2-10.1
	c-1.8-2.6-5.7-3.3-7.2-0.2C224.9,265.1,227.1,267,227.1,267z"/>
<path class="st9" d="M168,262c0,0-1.5-2.6-4.8-1.7s-3.4,4.8-1.2,7.1c2.2,2.3,9.1,6.1,9.1,6.1s4-6.8,4.7-9.9s-1.3-6.4-4.6-5.5
	S168,262,168,262z"/>
<path class="st9" d="M153.5,287c0,0-0.5-3-3.9-3.3c-3.4-0.3-4.9,3.3-3.6,6.2s6.4,8.9,6.4,8.9s6.1-5,7.9-7.6s1-6.5-2.4-6.8
	C154.5,284.2,153.5,287,153.5,287z"/>
<path class="st9" d="M273.5,373c0,0-0.5-3-3.9-3.3s-4.9,3.3-3.6,6.2c1.3,2.9,6.4,8.9,6.4,8.9s6.1-5,7.9-7.6c1.8-2.6,1-6.5-2.4-6.8
	S273.5,373,273.5,373z"/>
<path class="st9" d="M203.7,263.4c0,0,0.4-3-2.7-4.3c-3.2-1.3-5.6,1.7-5.3,4.9c0.4,3.2,3.5,10.4,3.5,10.4s7.3-2.9,9.8-4.9
	c2.5-2,2.9-5.9-0.3-7.2C205.5,261,203.7,263.4,203.7,263.4z"/>
<path class="st9" d="M202.7,154.4c0,0,0.4-3-2.7-4.3c-3.2-1.3-5.6,1.7-5.3,4.9c0.4,3.2,3.5,10.4,3.5,10.4s7.3-2.9,9.8-4.9
	c2.5-2,2.9-5.9-0.3-7.2S202.7,154.4,202.7,154.4z"/>
<path class="st9" d="M168.2,222.2c0,0,0-3-3.3-3.9c-3.3-0.9-5.4,2.4-4.6,5.5c0.8,3.1,4.8,9.8,4.8,9.8s6.8-3.9,9-6.2
	c2.2-2.3,2.1-6.2-1.2-7.1C169.7,219.6,168.2,222.2,168.2,222.2z"/>
<path class="st9" d="M196.2,220.9c0,0-2.9-0.7-4.5,2.3c-1.6,3,1.1,5.8,4.3,5.7c3.2-0.1,10.7-2.4,10.7-2.4s-2.2-7.5-3.9-10.2
	c-1.7-2.7-5.6-3.4-7.2-0.4C194,218.9,196.2,220.9,196.2,220.9z"/>
<path class="st9" d="M267.6,184.9c0,0-1.1-2.8-4.5-2.4c-3.4,0.4-4.1,4.2-2.3,6.8s8,7.4,8,7.4s5-6.1,6.2-9c1.2-2.9-0.3-6.5-3.7-6.1
	C268.1,182,267.6,184.9,267.6,184.9z"/>
<path class="st9" d="M251.2,215.6c0,0,1.6-2.5-0.7-5c-2.3-2.5-5.8-0.9-6.8,2.2s-1.3,10.9-1.3,10.9s7.8,0.5,10.9-0.3
	c3.1-0.7,5.1-4.1,2.8-6.6S251.2,215.6,251.2,215.6z"/>
<path class="st9" d="M221,173.9c0,0-0.8-2.9-4.2-2.8c-3.4,0.1-4.5,3.8-2.8,6.6c1.6,2.8,7.4,8.1,7.4,8.1s5.5-5.6,6.9-8.5
	c1.5-2.8,0.2-6.5-3.2-6.4C221.7,171,221,173.9,221,173.9z"/>
<path class="st9" d="M178.4,187.8c0,0,1-2.8-1.9-4.7c-2.8-1.9-5.9,0.6-6.1,3.8c-0.3,3.2,1.4,10.9,1.4,10.9s7.7-1.4,10.6-2.9
	c2.8-1.5,4-5.2,1.1-7.1C180.7,185.8,178.4,187.8,178.4,187.8z"/>
<path class="st9" d="M222.7,234.2c0,0-2.7-1.3-4.9,1.4s0,5.9,3.1,6.5c3.1,0.6,10.9-0.2,10.9-0.2s-0.6-7.8-1.8-10.8
	c-1.2-3-4.8-4.5-6.9-1.8S222.7,234.2,222.7,234.2z"/>
<path class="st9" d="M251.7,158.2c0,0-2.7-1.3-4.9,1.4s0,5.9,3.1,6.5c3.1,0.6,10.9-0.2,10.9-0.2s-0.6-7.8-1.8-10.8
	c-1.2-3-4.8-4.5-6.9-1.8S251.7,158.2,251.7,158.2z"/>
<path class="st9" d="M231.8,132.4c0,0-2.2-2.1-5.1-0.3s-1.9,5.6,0.9,7.1c2.8,1.6,10.4,3.3,10.4,3.3s1.9-7.6,1.7-10.8
	c-0.1-3.2-3.1-5.8-6-4S231.8,132.4,231.8,132.4z"/>
<path class="st9" d="M278.1,133.1c0,0-0.1-3-3.4-3.8s-5.3,2.6-4.4,5.6s5,9.7,5,9.7s6.7-4,8.9-6.4c2.2-2.4,1.9-6.2-1.4-7
	C279.5,130.5,278.1,133.1,278.1,133.1z"/>
<path class="st9" d="M343.3,155.2c0,0,0.1-3-3.2-3.9c-3.3-0.9-5.4,2.3-4.7,5.4c0.7,3.1,4.6,9.9,4.6,9.9s6.9-3.7,9.2-6
	s2.2-6.2-1.1-7.1C344.8,152.6,343.3,155.2,343.3,155.2z"/>
<path class="st9" d="M333.3,190.8c0,0,1.8-2.4-0.3-5.1c-2.1-2.7-5.7-1.3-7,1.7c-1.2,2.9-2.1,10.7-2.1,10.7s7.8,1,10.9,0.5
	c3.2-0.5,5.4-3.7,3.3-6.4S333.3,190.8,333.3,190.8z"/>
<path class="st9" d="M412.3,154.8c0,0,1.8-2.4-0.3-5.1c-2.1-2.7-5.7-1.3-7,1.7c-1.2,2.9-2.1,10.7-2.1,10.7s7.8,1,10.9,0.5
	c3.2-0.5,5.4-3.7,3.3-6.4S412.3,154.8,412.3,154.8z"/>
<path class="st9" d="M298.3,196.8c0,0-2.9-0.8-4.6,2.1c-1.7,2.9,0.9,5.8,4.1,5.9s10.8-1.9,10.8-1.9s-1.9-7.6-3.5-10.4
	s-5.4-3.7-7.1-0.7S298.3,196.8,298.3,196.8z"/>
<path class="st9" d="M298.6,159.1c0,0-1.7-2.4-4.9-1.2c-3.2,1.2-2.9,5.1-0.5,7.2c2.4,2.1,9.6,5.2,9.6,5.2s3.3-7.1,3.7-10.3
	s-1.9-6.2-5.1-5C298.2,156.1,298.6,159.1,298.6,159.1z"/>
<path class="st9" d="M302.4,99.7c0,0-2.4-1.8-5.1,0.4c-2.6,2.2-1.2,5.8,1.8,7s10.8,1.9,10.8,1.9s0.9-7.8,0.3-10.9
	c-0.6-3.1-3.8-5.3-6.4-3.2C301.1,97,302.4,99.7,302.4,99.7z"/>
<path class="st9" d="M265.9,106.1c0,0-2.6-1.5-5,1c-2.3,2.5-0.4,5.9,2.7,6.7c3.1,0.8,10.9,0.5,10.9,0.5s-0.1-7.8-1.1-10.9
	s-4.4-4.8-6.8-2.3S265.9,106.1,265.9,106.1z"/>
<path class="st9" d="M347.5,110.9c0,0,1-2.8-1.8-4.7c-2.8-1.9-5.9,0.5-6.2,3.7c-0.3,3.2,1.2,10.9,1.2,10.9s7.7-1.3,10.6-2.7
	s4-5.1,1.2-7.1C349.7,108.9,347.5,110.9,347.5,110.9z"/>
<path class="st9" d="M389.9,127.1c0,0-2.6-1.4-4.9,1.1c-2.3,2.5-0.3,5.9,2.8,6.6c3.1,0.7,10.9,0.3,10.9,0.3s-0.3-7.8-1.3-10.9
	c-1-3-4.5-4.7-6.8-2.2C388.2,124.6,389.9,127.1,389.9,127.1z"/>
<path class="st9" d="M404.8,188.4c0,0-2.2-2.1-5.1-0.2c-2.9,1.8-1.9,5.6,0.9,7.1c2.8,1.5,10.5,3.2,10.5,3.2s1.8-7.6,1.7-10.8
	s-3.1-5.7-6-3.9S404.8,188.4,404.8,188.4z"/>
<path class="st9" d="M370.7,201c0,0-0.3-3-3.7-3.5c-3.4-0.5-5.1,3-3.9,6c1.1,3,5.9,9.2,5.9,9.2s6.4-4.6,8.3-7.1
	c1.9-2.5,1.4-6.4-2-6.9S370.7,201,370.7,201z"/>
<path class="st9" d="M371.3,167.2c0,0,0.1-3-3.2-4c-3.3-1-5.4,2.3-4.7,5.4c0.7,3.1,4.5,10,4.5,10s6.9-3.7,9.2-5.9
	c2.3-2.2,2.2-6.1-1-7.1C372.8,164.6,371.3,167.2,371.3,167.2z"/>
<path class="st9" d="M440.5,169c0,0-0.5-3-3.9-3.3c-3.4-0.3-4.9,3.3-3.6,6.2c1.3,2.9,6.4,8.9,6.4,8.9s6.1-4.9,7.9-7.6
	c1.8-2.6,1-6.5-2.4-6.8C441.5,166.2,440.5,169,440.5,169z"/>
<path class="st9" d="M455.8,224.9c0,0-1-2.8-4.4-2.6c-3.4,0.3-4.3,4.1-2.5,6.7c1.8,2.7,7.8,7.7,7.8,7.7s5.2-5.9,6.5-8.8
	s-0.1-6.5-3.5-6.3C456.3,222,455.8,224.9,455.8,224.9z"/>
<path class="st9" d="M379.9,238.9c0,0-0.9-2.9-4.3-2.7c-3.4,0.2-4.4,3.9-2.7,6.7c1.7,2.7,7.6,7.9,7.6,7.9s5.3-5.7,6.8-8.6
	c1.4-2.9,0.1-6.5-3.3-6.4C380.5,236,379.9,238.9,379.9,238.9z"/>
<path class="st9" d="M410.4,225c0,0-0.6-2.9-4-3.2c-3.4-0.2-4.8,3.4-3.4,6.3c1.4,2.9,6.6,8.7,6.6,8.7s6-5.1,7.7-7.8
	c1.7-2.7,0.8-6.5-2.6-6.7C411.3,222.1,410.4,225,410.4,225z"/>
<path class="st9" d="M438.5,202c0,0-0.5-3-3.9-3.2s-4.9,3.3-3.6,6.2c1.3,2.9,6.4,8.9,6.4,8.9s6.1-5,7.9-7.6c1.8-2.7,1-6.5-2.4-6.8
	C439.5,199.2,438.5,202,438.5,202z"/>
<path class="st9" d="M425.3,257.2c0,0,0.1-3-3.2-3.9c-3.3-0.9-5.4,2.4-4.7,5.5c0.7,3.1,4.7,9.9,4.7,9.9s6.9-3.8,9.1-6
	c2.3-2.3,2.2-6.2-1.1-7.1C426.8,254.6,425.3,257.2,425.3,257.2z"/>
<path class="st9" d="M396.4,279c0,0-1.2-2.7-4.6-2.2s-3.9,4.4-1.9,6.9c2,2.5,8.4,7,8.4,7s4.6-6.3,5.7-9.4c1.1-3-0.7-6.5-4-5.9
	C396.7,276,396.4,279,396.4,279z"/>
<path class="st9" d="M438,287c0,0-2.6-1.5-5,1c-2.4,2.4-0.5,5.9,2.6,6.7c3.1,0.8,10.9,0.6,10.9,0.6s0-7.8-0.9-10.9
	c-0.9-3.1-4.4-4.8-6.8-2.4C436.4,284.5,438,287,438,287z"/>
<path class="st9" d="M475.8,251.2c0,0-2.7-1.3-4.9,1.3s-0.1,5.9,3,6.5c3.1,0.6,10.9-0.1,10.9-0.1s-0.6-7.8-1.7-10.8
	c-1.1-3-4.7-4.5-6.9-1.9C474,248.8,475.8,251.2,475.8,251.2z"/>
<path class="st9" d="M470.6,314c0,0-0.4-3-3.8-3.4c-3.4-0.4-5,3.2-3.7,6.1c1.2,3,6.2,9.1,6.2,9.1s6.2-4.8,8.1-7.4s1.2-6.4-2.2-6.8
	C471.7,311.2,470.6,314,470.6,314z"/>
<path class="st9" d="M382.3,319.7c0,0,0.9-2.9-2.1-4.6c-2.9-1.8-5.8,0.8-5.9,4c-0.1,3.2,1.9,10.8,1.9,10.8s7.6-1.8,10.4-3.4
	c2.8-1.6,3.7-5.4,0.8-7.1C384.4,317.6,382.3,319.7,382.3,319.7z"/>
<path class="st9" d="M414.4,320.2c0,0,0.2-3-3.1-4s-5.5,2.2-4.8,5.3c0.6,3.1,4.3,10.1,4.3,10.1s7-3.5,9.3-5.7
	c2.3-2.2,2.4-6.1-0.9-7.1S414.4,320.2,414.4,320.2z"/>
<path class="st9" d="M412.2,352c0,0-2.9-0.7-4.5,2.4c-1.6,3,1.2,5.8,4.4,5.7c3.2-0.1,10.6-2.5,10.6-2.5s-2.3-7.5-4.1-10.2
	c-1.8-2.7-5.6-3.4-7.2-0.3S412.2,352,412.2,352z"/>
<path class="st9" d="M404.6,383.6c0,0-2.3-1.9-5.1,0s-1.6,5.7,1.3,7.1c2.9,1.4,10.6,2.6,10.6,2.6s1.4-7.7,1.1-10.9
	c-0.3-3.2-3.4-5.6-6.2-3.6S404.6,383.6,404.6,383.6z"/>
<path class="st9" d="M443.1,322.3c0,0-2-2.2-5-0.6c-3,1.6-2.3,5.4,0.4,7.2s10.2,4,10.2,4s2.4-7.5,2.4-10.7c0.1-3.2-2.7-6-5.7-4.4
	C442.4,319.4,443.1,322.3,443.1,322.3z"/>
<path class="st9" d="M463.9,342.1c0,0-2.6-1.4-4.9,1.1c-2.3,2.5-0.3,5.9,2.8,6.6c3.1,0.7,10.9,0.3,10.9,0.3s-0.2-7.8-1.3-10.9
	c-1-3-4.5-4.7-6.8-2.2C462.2,339.6,463.9,342.1,463.9,342.1z"/>
<path class="st9" d="M445.3,357.8c0,0-2.9-0.8-4.6,2.1c-1.7,3,0.9,5.8,4.1,5.9c3.2,0.1,10.8-2,10.8-2s-1.9-7.6-3.6-10.4
	c-1.6-2.7-5.4-3.6-7.1-0.7C443.1,355.7,445.3,357.8,445.3,357.8z"/>
<path class="st9" d="M194.3,427.6c0,0-2.5-11.4-14.2-8.8c-11.7,2.5-15.6,18.7-10.3,29s24.5,28.7,24.5,28.7s19.2-26.7,24.5-39.3
	s1.4-27.1-10.3-24.6C196.8,415.2,194.3,427.6,194.3,427.6z"/>
<path class="st10" d="M196,430.5c0,0-2.3-10.1-13.1-7.9s-14.3,16.7-9.4,25.9c4.9,9.2,22.5,25.6,22.5,25.6s17.7-23.8,22.5-35.1
	s1.3-24.2-9.4-21.9C198.3,419.4,196,430.5,196,430.5z"/>
<path class="st9" d="M204.3,432.6c0,0-2.5-11.4-14.2-8.8c-11.7,2.5-15.6,18.7-10.3,29s24.5,28.7,24.5,28.7s19.2-26.7,24.5-39.3
	s1.4-27.1-10.3-24.6C206.8,420.2,204.3,432.6,204.3,432.6z"/>
<path class="st11" d="M170.6,452.9c0,0,6.8,2.5,11.7,2.2c0,0,9.3-1.4,12.5-2.2s7.5-0.7,11.5-1.5s11-3.7,11-3.7s12.2-4.1,12.9-4.9
	c0,0-0.8,4.4-2.4,6.1c-1.5,1.7-1.5,2.2-2,3.6c-0.5,1.4-2.4,3.6-2.4,3.6s-10.2,2.9-14.1,3.1c-3.9,0.2-4.4,1.2-8,2.4
	c-3.6,1.2-8.8,3.7-10.5,4.2c-1.7,0.5-1.9,1-4.2,1c-2.4,0-5.1-0.3-6.1-0.7s-3.2-2.7-4.1-4.2C175.7,460.2,171.8,458.5,170.6,452.9z"/>
<path class="st10" d="M175.1,458.6c0,0,3.8,0.1,5.3,1c1.5,0.9,4.5,1.5,6,0.9c0,0-3.1,1.9-5.3,1.1c-2.3-0.8-4.4,0.1-4.4,0.1l-2.5-2.4
	L175.1,458.6z"/>
<g>
	<g>
		<path class="st12" d="M442.8,407c0.5-1.2-0.2-2.7-1.2-3.6c-1-0.9-2.3-1.3-3.6-1.8c-1-0.3-2-0.7-3-1c-1.1-0.4-2.3-0.8-2.6-1.9
			c-0.5,1.4-0.9,2.7-1.4,4.1c-0.2,0.6-0.4,1.2-0.3,1.8c0.2,1.5,1.8,2.2,2.8,3.2c0.4,0.4,0.7,0.8,1.1,1.2c0.8,0.9,1.8,1.6,3,2
			c1.2,0.3,2.5,0.2,3.5-0.4L442.8,407z"/>
		<path class="st12" d="M443.5,406c2.6-1,5.6-1.1,8.3-0.3c0.5,0.1,1,0.3,1.4,0.6c1,0.6,1.7,1.8,2.5,2.7c0.8,0.9,2,1.7,3.2,1.3
			c-1,0.6-2.3,0.4-3.4,0.8c-1.3,0.5-2.1,1.7-3.2,2.5c-1.3,1-3,1.3-4.7,1.1s-3.2-0.7-4.6-1.5c-0.4-0.2-0.7-0.4-1-0.7
			c-0.3-0.4-0.3-1-0.8-1.2L443.5,406z"/>
		<path class="st12" d="M449.5,397.1c0,0-2.1,3.1-2.8,3.4c-0.7,0.3-0.2,0.4-1.2,2c-0.9,1.6-7.8,21.9-8.3,22.7
			c-0.5,0.8-15.5,46.2-15.5,46.6s-2.6-0.6-2.6-2.4s3-7,3.3-7.8c0.3-0.8,11.9-33.2,12.4-35.4c0.5-2.2,4.7-12.9,5.2-14.5
			s4.8-11.7,4.4-12c-0.4-0.2-0.5-3.7-0.1-4.7L449.5,397.1z"/>
		<path class="st12" d="M445.3,406.5c0,0-1.1,0.1-1.9-0.1c0,0-1,1.4-0.9,2.3C442.5,408.7,443.8,408.8,445.3,406.5z"/>
		<path class="st12" d="M441.6,416.4c0,0-1.1,0.1-1.9-0.1c0,0-0.6,1-0.5,2C439.2,418.3,440.1,418.7,441.6,416.4z"/>
		<path class="st12" d="M436.5,431.3c0,0-1.1,0.1-1.9-0.1c0,0-0.7,1-0.6,1.9C434.1,433.1,435,433.6,436.5,431.3z"/>
		<path class="st12" d="M433.7,441.1c0,0-1.2-0.1-2-0.4c0,0-0.6,0.5-0.7,1.6C431,442.3,432.2,443.4,433.7,441.1z"/>
		<path class="st12" d="M424.4,467c0,0-1.1,0.1-1.9-0.1c0,0-1,1.4-0.9,2.3C421.6,469.2,422.9,469.3,424.4,467z"/>
		<path class="st12" d="M443.9,402.9c0,0-0.9-0.4-1.4-0.8c0,0-0.2,1.6,0.4,2.5C443,404.7,443.7,404.5,443.9,402.9z"/>
		<path class="st12" d="M437.9,418.8c0,0-0.9-0.4-1.4-0.8c0,0-0.2,1.6,0.4,2.5C437,420.6,437.8,420.4,437.9,418.8z"/>
		<path class="st12" d="M434.6,428.6c0,0-0.9-0.4-1.4-0.8c0,0-0.3,1.8,0.4,2.7C433.5,430.5,434.4,430.2,434.6,428.6z"/>
		<path class="st12" d="M430,441.6c0,0-1.1-0.2-1.7-0.6c0,0,0.1,1.4,0.7,2.3C429,443.3,429.8,443.1,430,441.6z"/>
		<path class="st12" d="M429.9,452.3c0,0-1.2-0.1-2-0.4c0,0-0.6,0.5-0.7,1.6C427.2,453.5,428.4,454.6,429.9,452.3z"/>
		<path class="st12" d="M426.2,452.8c0,0-1.1-0.2-1.7-0.6c0,0,0.1,1.4,0.7,2.3C425.3,454.5,426.1,454.4,426.2,452.8z"/>
		<path class="st12" d="M447.6,398.1c0,0,2.7,0.3,4.2,2.3c1.5,1.9,1.7,4.8,1.7,4.8s2.5-5.1-2.1-8l-2.9-0.9L447.6,398.1z"/>
		<path class="st12" d="M451.2,395.9c0,0,3.4-0.7,5.4,0.9c0,0-1.1-2.9-4.8-3L451.2,395.9z"/>
		<path class="st12" d="M445.3,396.7c0,0-1.6-1.4-4,0.9c-2.4,2.4-3.2,4.1-3.2,4.1s0.4-6,4.6-7.6l2.5,0.8L445.3,396.7z"/>
		<path class="st12" d="M442.4,392.9c0,0-2.6-2.8-4.7-1.4c0,0,1.7-2.9,4.7-1.2L442.4,392.9z"/>
		<path class="st12" d="M421.9,464c0,0-0.9-0.4-1.4-0.8c0,0-0.2,1.8,0.4,2.7C421,465.9,421.7,465.6,421.9,464z"/>
		<path class="st13" d="M446.2,397.1c-1.4-0.6-2.9-1.4-3.5-2.8c-0.4-1.1-0.2-2.3-0.5-3.5c-0.2-0.8-0.6-1.6-0.9-2.4
			c-0.3-0.8-0.4-1.8,0-2.5c0.2-0.4,0.5-0.7,0.7-1.1c0.3-0.5,0.2-1.2,0.2-1.7c-0.1-0.8-0.1-1.6,0.1-2.3c0.2-0.8,0.7-1.5,1.4-1.8
			c0.3-0.1,0.7-0.2,1-0.3c0.5-0.3,0.7-1,1.1-1.4c0.5-0.4,1.3-0.4,2-0.1c2.1,0.8,4.2,1.2,6.4,1.7c0.4,0.1,0.9,0.2,1.3,0.4
			c0.6,0.3,1.1,0.8,1.4,1.4c0.2,0.4,0.3,0.8,0.6,1.1c0.4,0.5,1.1,0.5,1.7,0.8c0.7,0.4,1,1.2,1.6,1.7c0.6,0.4,1.2,0.6,1.5,1.4
			c0.5,1.1-0.3,3.1-0.8,4.1c-0.5,1.1-1.3,2-2.4,2.4c-0.2,0.1-0.4,0.1-0.5,0.3c-0.3,0.3-0.2,0.8-0.3,1.2c-0.1,1-1.2,1.6-2.1,1.8
			c-0.5,0.1-1.1,0.1-1.6,0.3c-0.7,0.2-1.3,0.8-1.9,1.3c-1.1,0.8-2.3,1.1-3.6,0.8C448.1,397.5,447,397.4,446.2,397.1z"/>
		<path class="st14" d="M452.2,383.4c-1-0.1-1.8-0.3-2.4-1.1c1.2,0.1,2.3,0.4,3.4,0.9c0.3,0.1,0.6,0.3,0.6,0.6
			c0,0.3-0.2,0.5-0.5,0.6c-0.3,0.1-0.6,0-0.8,0c-1.5-0.3-3-0.8-4.4-1.5c-0.3-0.1-0.5-0.3-0.7-0.5c-0.2-0.3-0.2-0.6,0.1-0.8
			c0.2-0.1,0.4-0.1,0.6-0.1c3,0.2,5.9,1.1,8.5,2.5c0.4,0.2,0.8,0.5,0.9,0.9c0.1,0.3,0,0.5,0,0.8c-0.1,0.5-0.5,1-1,1.1
			c-0.7,0.1-1.1-0.7-1.8-1c-0.9-0.3-1.8,0.5-2.7,0.5c-1.1,0-1.8-1.1-2.7-1.5c-0.2-0.1-0.5-0.2-0.7-0.1c-0.2,0-0.4,0.1-0.5,0.2
			c-0.6,0.1-1.1-0.4-1.5-0.9s-0.6-1.1-1.2-1.3c-0.5-0.2-1.3-0.1-1.5-0.6c-0.1-0.2-0.1-0.4-0.1-0.5c0-0.8,0.1-1.8,0.8-2.1"/>
		<path class="st14" d="M447.7,382.7c-0.8-0.2-1.6-0.8-1.7-1.7c-0.1-0.8,0.4-1.8,1.3-1.9c0.8-0.1,1.5,0.5,2.3,0.7
			c1.1,0.3,2.2,0,3.3,0.3c0.2,0,0.3,0.1,0.4,0.2c0.1,0.1,0.1,0.3,0.2,0.4c0.1,0.2,0.3,0.2,0.5,0.3c0.7,0.2,1.3,0.4,2,0.6
			c0.4,0.1,0.9,0.3,1.2,0.5c0.3,0.2,0.6,0.5,0.8,0.8c0.7,0.7,1.4,1.2,2.3,1.5c0.5,0.2,1.2,0.4,1.4,1"/>
		<path class="st14" d="M457.3,384.4c0.9,0.8,1.3,2.2,1,3.4c-0.1,0.3-0.2,0.6-0.4,0.8c-0.4,0.3-0.9,0.2-1.3,0
			c-0.4-0.2-0.8-0.4-1.2-0.5c-0.5,0.7-1.5,0.8-2.4,0.6c-0.8-0.2-1.5-0.8-2.2-1.3c-0.7-0.5-1.5-1-2.3-1.1c-0.6-0.1-1.3,0-1.8-0.3
			c-0.7-0.3-1.1-1.2-1.7-1.7c-0.5-0.4-1.1-0.6-1.6-1c-0.5-0.4-1.4-1.6-0.9-2"/>
		<path class="st14" d="M461.6,387.8c-1.7,1.9-2.9,2.3-4.2,2.4c-0.2,0-1.6-0.3-1.7-0.2c-0.4,0.2-0.5,0.7-0.8,1
			c-0.3,0.2-0.8,0.1-1.1,0c-1.4-0.5-2.5-1.6-3.9-1.7c-0.3,0-0.7,0-1-0.2c-0.4-0.2-0.6-0.6-0.8-0.9c-0.4-0.5-0.9-0.7-1.5-1
			c-0.5-0.2-1-0.5-1.5-0.5c-0.5,0-1.1,0.4-1.1,0.9c0,0.5,0.4,0.9,0.7,1.3c0.3,0.4,0.5,1.1,0,1.4c-0.2,0.1-0.4,0.1-0.6,0.2
			c-0.3,0.1-0.4,0.3-0.6,0.6c-0.5,0.9-0.7,1.9-0.6,3"/>
		<path class="st15" d="M441.1,408.6c-0.1-0.7-0.6-1.3-1.2-1.7c-0.5-0.3-1.2-0.4-1.7-0.7c-0.7-0.3-1.3-1-1.9-1.6
			c-0.6-0.7-1.1-1.3-1.7-2"/>
		<path class="st15" d="M442.8,409.5c0.6-0.1,1.2-0.2,1.8-0.3c0.2,0,0.4-0.1,0.6,0c0.3,0.1,0.5,0.2,0.7,0.4c1,0.6,2.4,0.6,3.4,0
			c0.2-0.1,0.3-0.2,0.5-0.3c0.2,0,0.3,0,0.5,0.1c0.5,0.1,1,0.2,1.5,0.4"/>
	</g>
	<g>
		<path class="st12" d="M431.9,403.1c0.3-1.3-0.6-2.6-1.7-3.4c-1.1-0.7-2.5-1-3.8-1.2c-1-0.2-2.1-0.4-3.1-0.6
			c-1.1-0.2-2.4-0.5-2.9-1.5c-0.3,1.4-0.5,2.8-0.8,4.3c-0.1,0.6-0.2,1.3-0.1,1.9c0.4,1.4,2.1,1.9,3.3,2.8c0.4,0.3,0.8,0.7,1.3,1.1
			c0.9,0.8,2,1.3,3.2,1.5s2.5-0.1,3.4-0.9L431.9,403.1z"/>
		<path class="st12" d="M432.5,402c2.5-1.4,5.4-1.9,8.1-1.5c0.5,0.1,1,0.2,1.5,0.4c1.1,0.5,1.9,1.5,2.9,2.3c0.9,0.8,2.3,1.4,3.4,0.8
			c-0.9,0.7-2.2,0.7-3.2,1.3c-1.2,0.7-1.8,2-2.8,3c-1.2,1.2-2.8,1.7-4.4,1.8c-1.6,0.1-3.3-0.3-4.8-0.8c-0.4-0.1-0.8-0.3-1.1-0.6
			c-0.3-0.4-0.5-0.9-0.9-1.1L432.5,402z"/>
		<path class="st12" d="M437.2,392.3c0,0-1.6,3.4-2.3,3.8s-0.2,0.4-0.9,2.2c-0.7,1.8-4.5,22.8-4.9,23.7c-0.3,0.9-8.6,48-8.6,48.4
			c0,0.4-2.7-0.2-2.9-2c-0.2-1.8,2-7.3,2.1-8.2c0.1-0.8,6.9-34.6,7.1-36.8c0.2-2.2,2.8-13.5,3.1-15.1s3-12.3,2.6-12.5
			c-0.4-0.2-1.1-3.6-0.8-4.6L437.2,392.3z"/>
		<path class="st12" d="M434.4,402.2c0,0-1,0.3-1.9,0.1c0,0-0.8,1.5-0.5,2.4C431.9,404.8,433.2,404.7,434.4,402.2z"/>
		<path class="st12" d="M432.2,412.6c0,0-1,0.3-1.9,0.1c0,0-0.5,1.1-0.2,2C430.1,414.7,431,415.1,432.2,412.6z"/>
		<path class="st12" d="M429.3,428c0,0-1,0.3-1.9,0.1c0,0-0.5,1.1-0.3,2C427.2,430.1,428.2,430.5,429.3,428z"/>
		<path class="st12" d="M427.9,438.1c0,0-1.2,0.1-2-0.1c0,0-0.5,0.5-0.5,1.6C425.5,439.7,426.8,440.6,427.9,438.1z"/>
		<path class="st12" d="M422.5,465.1c0,0-1,0.3-1.9,0.1c0,0-0.8,1.5-0.5,2.4C420.1,467.7,421.4,467.6,422.5,465.1z"/>
		<path class="st12" d="M432.5,398.9c0,0-0.9-0.2-1.5-0.5c0,0,0.1,1.6,0.8,2.4C431.8,400.7,432.5,400.5,432.5,398.9z"/>
		<path class="st12" d="M428.9,415.5c0,0-0.9-0.2-1.5-0.5c0,0,0.1,1.6,0.8,2.4C428.2,417.4,429,417.1,428.9,415.5z"/>
		<path class="st12" d="M427,425.6c0,0-0.9-0.2-1.5-0.5c0,0,0,1.9,0.7,2.6C426.3,427.7,427,427.2,427,425.6z"/>
		<path class="st12" d="M424.3,439.2c0,0-1.1,0-1.7-0.3c0,0,0.3,1.4,1.1,2.2C423.7,441,424.4,440.7,424.3,439.2z"/>
		<path class="st12" d="M425.9,449.8c0,0-1.2,0.1-2-0.1c0,0-0.5,0.5-0.5,1.6C423.4,451.4,424.7,452.3,425.9,449.8z"/>
		<path class="st12" d="M422.3,450.8c0,0-1.1,0-1.7-0.3c0,0,0.3,1.4,1.1,2.2C421.6,452.7,422.3,452.4,422.3,450.8z"/>
		<path class="st12" d="M435.5,393.6c0,0,2.7-0.1,4.5,1.6c1.8,1.7,2.4,4.5,2.4,4.5s1.7-5.4-3.3-7.6l-3-0.5L435.5,393.6z"/>
		<path class="st12" d="M438.7,390.9c0,0,3.2-1.2,5.5,0.1c0,0-1.5-2.7-5.2-2.3L438.7,390.9z"/>
		<path class="st12" d="M432.9,392.6c0,0-1.8-1.2-3.8,1.5c-2,2.7-2.5,4.5-2.5,4.5s-0.5-6,3.4-8.2l2.6,0.5L432.9,392.6z"/>
		<path class="st12" d="M429.5,389.2c0,0-3-2.4-4.8-0.7c0,0,1.3-3.2,4.5-1.9L429.5,389.2z"/>
		<path class="st12" d="M419.7,462.5c0,0-0.9-0.2-1.5-0.5c0,0,0.1,1.8,0.8,2.6C419,464.6,419.7,464.1,419.7,462.5z"/>
		<path class="st13" d="M433.9,392.8c-1.5-0.4-3.1-0.9-3.8-2.2c-0.6-1-0.6-2.3-1-3.4c-0.3-0.8-0.9-1.5-1.3-2.3
			c-0.4-0.8-0.7-1.7-0.4-2.5c0.2-0.4,0.4-0.8,0.6-1.2c0.2-0.6,0-1.2-0.1-1.7c-0.2-0.8-0.3-1.5-0.3-2.3c0.1-0.8,0.4-1.6,1.1-1.9
			c0.3-0.2,0.6-0.3,0.9-0.5c0.5-0.4,0.5-1.1,0.9-1.6c0.5-0.5,1.3-0.6,1.9-0.4c2.1,0.5,4.3,0.6,6.6,0.7c0.4,0,0.9,0.1,1.3,0.2
			c0.6,0.2,1.2,0.6,1.6,1.2c0.2,0.3,0.4,0.8,0.7,1c0.5,0.4,1.2,0.4,1.8,0.6c0.8,0.3,1.1,1,1.8,1.4c0.6,0.4,1.3,0.5,1.7,1.1
			c0.6,1,0.2,3.1-0.2,4.2c-0.3,1.1-1,2.2-2,2.8c-0.2,0.1-0.3,0.2-0.4,0.3c-0.3,0.3-0.1,0.8-0.1,1.3c0,1-0.9,1.8-1.9,2.1
			c-0.5,0.2-1.1,0.3-1.6,0.5c-0.7,0.4-1.2,1-1.7,1.6c-1,1-2.1,1.4-3.5,1.3C435.8,392.9,434.8,393,433.9,392.8z"/>
		<path class="st14" d="M437.8,378.3c-1,0-1.8-0.1-2.5-0.8c1.2-0.1,2.4,0,3.5,0.4c0.3,0.1,0.6,0.2,0.7,0.5c0.1,0.3-0.1,0.6-0.4,0.7
			c-0.3,0.1-0.6,0.1-0.8,0.1c-1.6-0.1-3.1-0.4-4.6-0.9c-0.3-0.1-0.6-0.2-0.8-0.4s-0.2-0.6,0-0.8c0.2-0.2,0.4-0.2,0.6-0.2
			c3-0.2,6,0.2,8.8,1.3c0.4,0.2,0.8,0.3,1,0.7c0.1,0.2,0.1,0.5,0.1,0.8c-0.1,0.5-0.3,1.1-0.8,1.2c-0.7,0.2-1.2-0.6-1.9-0.7
			c-0.9-0.2-1.7,0.7-2.6,0.8c-1,0.1-1.9-0.8-2.9-1.1c-0.2-0.1-0.5-0.1-0.7,0c-0.2,0.1-0.3,0.2-0.5,0.2c-0.6,0.2-1.2-0.2-1.6-0.7
			s-0.8-1-1.4-1.1c-0.6-0.1-1.3,0.1-1.6-0.4c-0.1-0.2-0.1-0.3-0.2-0.5c-0.1-0.8-0.2-1.8,0.5-2.2"/>
		<path class="st14" d="M433.3,378.3c-0.8-0.1-1.7-0.6-1.9-1.4c-0.3-0.8,0.2-1.8,1-2.1c0.8-0.2,1.6,0.2,2.4,0.4
			c1.1,0.2,2.2-0.3,3.3-0.2c0.2,0,0.3,0,0.5,0.2c0.1,0.1,0.2,0.3,0.3,0.4c0.1,0.1,0.4,0.2,0.6,0.2c0.7,0.1,1.3,0.2,2,0.3
			c0.4,0.1,0.9,0.1,1.3,0.3c0.3,0.2,0.6,0.4,0.9,0.6c0.7,0.6,1.6,1,2.5,1.2c0.6,0.1,1.2,0.3,1.5,0.8"/>
		<path class="st14" d="M443,378.6c1,0.7,1.6,2,1.5,3.2c0,0.3-0.1,0.6-0.3,0.9c-0.3,0.3-0.8,0.3-1.3,0.2c-0.4-0.1-0.9-0.3-1.3-0.4
			c-0.4,0.7-1.4,1-2.3,0.9s-1.6-0.5-2.4-0.9c-0.8-0.4-1.6-0.8-2.4-0.8c-0.6,0-1.3,0.2-1.9,0c-0.8-0.2-1.2-1-1.9-1.4
			c-0.5-0.3-1.2-0.4-1.7-0.7c-0.5-0.3-1.6-1.3-1.2-1.8"/>
		<path class="st14" d="M447.7,381.3c-1.4,2.1-2.5,2.7-3.8,3c-0.2,0-1.6-0.1-1.8,0.1c-0.3,0.3-0.4,0.8-0.7,1.1
			c-0.3,0.3-0.7,0.3-1.1,0.2c-1.4-0.3-2.7-1.2-4.1-1.1c-0.3,0-0.7,0.1-1,0c-0.4-0.1-0.7-0.5-1-0.8c-0.5-0.4-1-0.6-1.6-0.8
			c-0.5-0.2-1-0.4-1.6-0.3c-0.5,0.1-1,0.5-1,1.1c0,0.5,0.5,0.9,0.9,1.2c0.4,0.4,0.6,1,0.2,1.4c-0.1,0.1-0.4,0.2-0.5,0.3
			c-0.2,0.1-0.4,0.4-0.5,0.6c-0.4,0.9-0.4,2-0.1,3"/>
		<path class="st15" d="M430.5,405c-0.2-0.7-0.7-1.2-1.4-1.5c-0.6-0.2-1.2-0.2-1.8-0.4c-0.8-0.2-1.5-0.8-2.1-1.3
			c-0.7-0.6-1.3-1.2-1.9-1.8"/>
		<path class="st15" d="M432.4,405.6c0.6-0.2,1.2-0.4,1.8-0.6c0.2-0.1,0.4-0.1,0.6-0.1c0.3,0,0.5,0.2,0.7,0.3
			c1.1,0.5,2.4,0.3,3.3-0.5c0.2-0.1,0.3-0.3,0.5-0.3c0.2,0,0.3,0,0.5,0c0.5,0,1,0.1,1.5,0.1"/>
	</g>
	<g>
		<path class="st12" d="M453,413.7c1.1-0.6,1.4-2.1,1-3.3c-0.4-1.2-1.3-2.1-2.2-3.1s-1.7-1.9-1.9-3.2c-0.1-0.7,0-1.5,0.3-2.2
			c-2.2,2.1-4.5,4.3-5.6,7.1c-0.2,0.6-0.4,1.2-0.4,1.8c0,1,0.5,2,1.3,2.7c0.8,0.7,1.7,1.1,2.8,1.4c1.2,0.3,2.4,0.4,3.6,0.2
			c0.4-0.1,0.9-0.2,1-0.6L453,413.7z"/>
		<path class="st15" d="M452.6,413.8c-0.5-1.1-1.5-2-2.7-2.4c-0.3-0.1-0.6-0.2-0.8-0.4c-0.3-0.2-0.5-0.6-0.6-1
			c-0.3-0.9-0.6-1.9-0.1-2.7"/>
		<path class="st12" d="M451.9,417.1c-0.2,1,0.8,1.7,1.7,2.2c1.7,0.9,3.5,1.7,5.3,1.3c0.9-0.2,1.7-0.7,2.6-0.8
			c1.4-0.2,2.8,0.4,4,1.1c1.2,0.7,2.3,1.6,3.7,2c-1.4-0.6-2.2-2.2-2.6-3.7s-0.9-3.1-2-4.2c-1.9-1.8-5-1.2-7.5-1.9
			c-0.5-0.2-1-0.4-1.5-0.3c-0.9,0.1-1.4,1.1-1.8,2L451.9,417.1z"/>
		<path class="st15" d="M452.9,414.6c0.6,0.5,1.2,1,1.9,1.2c0.4,0.1,0.9,0.1,1.3,0.1c1.3-0.1,2.5-0.3,3.8-0.2s2.6,0.5,3.3,1.6"/>
		<path class="st12" d="M462.1,404.1c0,0-2.5,2.7-3.3,3s-0.3,0.4-1.5,1.8c-1.2,1.5-18.1,37.9-18.7,38.6c-0.6,0.7-13,25.3-13.1,25.7
			c-0.1,0.4-2.5-1-2.2-2.8c0.3-1.8,4-6.4,4.4-7.2c0.4-0.7,7.4-13,8.2-15.1c0.8-2.1,13.7-29.4,14.4-30.9c0.8-1.5,6.5-10.9,6.1-11.2
			c-0.4-0.3,0-3.7,0.6-4.7L462.1,404.1z"/>
		<path class="st12" d="M456.5,412.7c0,0-1.1,0-1.8-0.4c0,0-1.2,1.2-1.2,2.2C453.5,414.5,454.7,414.8,456.5,412.7z"/>
		<path class="st12" d="M452.1,422.2c0,0-1.1,0-1.8-0.4c0,0-0.8,0.9-0.8,1.9C449.5,423.6,450.3,424.3,452.1,422.2z"/>
		<path class="st12" d="M438.1,451.3c0,0-1.1,0-1.8-0.4c0,0-0.8,0.9-0.9,1.8C435.4,452.7,436.2,453.4,438.1,451.3z"/>
		<path class="st12" d="M434.3,459.6c0,0-1.1-0.3-1.9-0.7c0,0-0.6,0.4-0.9,1.4C431.5,460.4,432.5,461.6,434.3,459.6z"/>
		<path class="st12" d="M429,468.7c0,0-1.1,0-1.8-0.4c0,0-1.2,1.2-1.2,2.2C425.9,470.5,427.2,470.8,429,468.7z"/>
		<path class="st12" d="M455.7,409c0,0-0.8-0.5-1.2-1c0,0-0.4,1.6,0.1,2.5C454.5,410.6,455.3,410.5,455.7,409z"/>
		<path class="st12" d="M448.1,423.8c0,0-0.8-0.5-1.2-1c0,0-0.4,1.6,0.1,2.5C446.9,425.4,447.7,425.4,448.1,423.8z"/>
		<path class="st12" d="M436.5,448.4c0,0-0.8-0.5-1.2-1c0,0-0.5,1.8-0.1,2.7C435.2,450.1,436.1,449.9,436.5,448.4z"/>
		<path class="st12" d="M444.7,437.4c0,0-1.1,0-1.8-0.4c0,0-0.8,0.9-0.9,1.8C442,438.8,442.8,439.5,444.7,437.4z"/>
		<path class="st12" d="M443.1,434.5c0,0-0.8-0.5-1.2-1c0,0-0.5,1.8-0.1,2.7C441.8,436.2,442.7,436,443.1,434.5z"/>
		<path class="st12" d="M430.5,459.5c0,0-1.1-0.4-1.6-0.8c0,0-0.1,1.4,0.4,2.4C429.4,461.1,430.2,461,430.5,459.5z"/>
		<path class="st12" d="M460.1,404.8c0,0,2.6,0.7,3.8,2.9c1.2,2.1,1,5,1,5s3.2-4.6-0.9-8.3l-2.7-1.3L460.1,404.8z"/>
		<path class="st12" d="M464,403.2c0,0,3.4-0.2,5.2,1.7c0,0-0.7-3-4.2-3.7L464,403.2z"/>
		<path class="st12" d="M458,403.1c0,0-1.4-1.7-4.1,0.3c-2.7,2-3.7,3.6-3.7,3.6s1.3-5.9,5.7-6.8l2.4,1.2L458,403.1z"/>
		<path class="st12" d="M455.7,398.8c0,0-2.1-3.2-4.4-2.1c0,0,2.1-2.7,4.9-0.5L455.7,398.8z"/>
		<path class="st12" d="M427,465.4c0,0-0.8-0.5-1.2-1c0,0-0.4,1.7,0,2.7C425.8,467.2,426.6,466.9,427,465.4z"/>
		<path class="st13" d="M458.9,403.6c-1.3-0.8-2.7-1.8-3-3.2c-0.3-1.1,0.1-2.3,0.1-3.5c-0.1-0.9-0.4-1.7-0.5-2.5
			c-0.2-0.9-0.2-1.8,0.4-2.5c0.3-0.3,0.6-0.6,0.9-0.9c0.3-0.5,0.4-1.1,0.4-1.7c0.1-0.8,0.1-1.6,0.4-2.3s0.9-1.4,1.6-1.5
			c0.3-0.1,0.7-0.1,1-0.2c0.6-0.2,0.8-0.9,1.4-1.3c0.6-0.4,1.4-0.2,2,0.2c0.6,0.3,1.1,0.8,1.8,1c0.5,0.2,1.1,0.2,1.6,0.3
			c1.8,0.2,3.4,1.1,4.9,1.9c0.4,0.2,0.8,0.4,1,0.7c0.3,0.3,0.3,0.9,0.1,1.2c0.1,1.2,0.7,2.3,1.5,3.1c0.7,0.7,1.8,1.3,2,2.3
			c0.4,1.5-1,2.8-2.5,3.3c-0.6,0.2-1.4,0.3-1.8,0.9c-0.5,0.7,0,1.7-0.4,2.5c-0.5,1.1-2.1,1-3.2,0.7c-0.3-0.1-0.7-0.2-1-0.1
			c-0.3,0.1-0.5,0.3-0.7,0.5c-1.3,1.3-2.8,3-4.5,2.5L458.9,403.6z"/>
		<path class="st16" d="M457.6,403c0,0-0.6-0.3,1.3-2.2s3.1-2.5,2.7-3.5c-0.3-1-4.4-3.5-4-7.3"/>
		<path class="st14" d="M459.6,385.8c0,0,1.1,0.3,1.8,2.1c0.3,0.8,0.2,1.6,1.9,3c1.7,1.4,3.8,3.3,5.4,2.6c1.3-0.6,1.1-2.3-0.3-3.6
			c-1.4-1.3-2.7-2-3.9-2.4c-1.2-0.4-2.2,0.2-1.4,1.1c0.8,0.9,2.5,2.5,3.7,2.9c1.1,0.4,2,0.3,0.9-1c-0.8-0.9-1.7-1.5-2.1-1.7
			c-0.4-0.2-0.9-0.5-1.1-0.3s0.1,0.7,1.4,1.5"/>
		<path class="st14" d="M460.5,385c1.7-0.2,3.1,0.4,4.7,1c0.7,0.4,1.3,1.2,1.9,1.5c0.6,0.3,1.3,0.4,1.9,0.6c0.8,0.2,1.6,0.6,2.1,1.2
			c0.5,0.7,0.7,1.7,0.2,2.3c0.7,0.3,1.5,0.6,1.9,1.2s0.6,1.6,0,2.1c-0.4,0.4-1.2,0.4-1.3,1c-0.1,0.3,0.1,0.7,0.1,1
			c0.2,1.1-1.1,2.1-2.1,1.8c-0.2-0.1-0.5-0.2-0.7-0.2c-0.3,0.1-0.5,0.4-0.7,0.6c-0.6,0.6-1.5,0.5-2.3,0.3c0,0-1.4-0.6-2.5-1.8
			c-1-1.2-2.9-2.6-2.9-2.6l-2.9-3.5c0,0-1.1-2-0.5-3.2"/>
		<path class="st14" d="M468.8,390.1c1,0.9,1.6,2.2,2,3.4c0.2,0.7,0.4,1.5,0.2,2.2s-0.8,1.4-1.6,1.4c-1.1,0-1.8-1.2-2.8-1.6
			c-0.8-0.4-2-0.3-2.4-1.1c-0.2-0.3-0.2-0.7-0.4-1c-0.4-0.9-1.4-1.2-2.4-1.4c-0.4-0.1-0.9-0.1-1.2-0.4c-0.3-0.3-0.5-0.7-0.6-1.1
			c-0.2-0.6-0.3-1.2-0.5-1.8c-0.2-0.9-0.4-2.1,0.3-2.7c0.3-0.2,0.1-0.7,0.5-0.8c0.7-0.2,2.8-0.2,4.2,0.2"/>
	</g>
	<g>
		<path class="st12" d="M428.1,418.2c-0.4-1.2,0.4-2.5,1.6-3.1c1.1-0.6,2.4-0.6,3.7-0.7s2.6-0.2,3.6-1c0.6-0.4,1.1-1.1,1.3-1.8
			c0.2,3,0.3,6.2-0.8,9c-0.2,0.6-0.5,1.1-0.9,1.6c-0.7,0.7-1.8,1.1-2.8,1.1c-1,0-2-0.4-2.9-0.9c-1-0.6-2-1.4-2.7-2.3
			c-0.3-0.3-0.5-0.7-0.4-1.1L428.1,418.2z"/>
		<path class="st15" d="M428.3,418.5c1.1-0.5,2.5-0.4,3.6,0.1c0.3,0.1,0.6,0.3,0.9,0.3c0.4,0,0.8-0.1,1.1-0.3c0.8-0.4,1.8-1,2-1.9"
			/>
		<path class="st12" d="M426.6,421.5c-0.5,0.9-1.8,0.7-2.7,0.4c-1.8-0.5-3.7-1.2-4.8-2.7c-0.5-0.8-0.7-1.7-1.3-2.4
			c-0.8-1.1-2.3-1.6-3.7-1.9c-1.4-0.3-2.8-0.4-4.1-1.1c1.5,0.5,3.1-0.1,4.4-0.9c1.4-0.8,2.8-1.7,4.3-1.6c2.6,0,4.4,2.6,6.8,3.8
			c0.5,0.2,1,0.4,1.3,0.8c0.6,0.7,0.3,1.8-0.1,2.7L426.6,421.5z"/>
		<path class="st15" d="M427.6,418.9c-0.7,0-1.5-0.1-2.2-0.5c-0.4-0.2-0.7-0.5-1-0.9c-0.9-0.9-1.6-2-2.6-2.8c-1-0.8-2.3-1.4-3.5-1.1
			"/>
		<path class="st12" d="M428.1,404.9c0,0,0,3.7,0.3,4.4c0.4,0.7,0,0.5-0.2,2.3c-0.2,1.9-6.1,22.5-6.2,23.4
			c-0.1,0.9-12.9,45.6-13.1,45.9c-0.2,0.3,2.5,1,3.5-0.5c1-1.5,1.5-7.4,1.7-8.2s3.6-14.5,4.4-16.6c0.8-2.1,8.4-31.6,8.9-33.2
			c0.5-1.6,2.8-12.4,3.2-12.3c0.5,0,2.5-2.7,2.8-3.8L428.1,404.9z"/>
		<path class="st12" d="M426.2,415.1c0,0,0.8,0.7,1.6,0.9c0,0,0,1.7-0.6,2.4C427.2,418.5,426.1,417.8,426.2,415.1z"/>
		<path class="st12" d="M423.5,425.3c0,0,0.8,0.7,1.6,0.9c0,0-0.1,1.2-0.7,1.9C424.5,428.2,423.4,428.1,423.5,425.3z"/>
		<path class="st12" d="M416.8,450.3c0,0,0.8,0.7,1.6,0.9c0,0,0,1.2-0.6,1.9C417.8,453.1,416.7,453,416.8,450.3z"/>
		<path class="st12" d="M413.5,459.9c0,0,1,0.6,1.8,0.8c0,0,0.2,0.7-0.3,1.7C415.1,462.4,413.4,462.7,413.5,459.9z"/>
		<path class="st12" d="M410.3,472.8c0,0,0.8,0.7,1.6,0.9c0,0,0,1.7-0.6,2.4C411.3,476.2,410.2,475.6,410.3,472.8z"/>
		<path class="st12" d="M429.4,412.9c0,0,0.9,0.2,1.6,0.2c0,0-0.8,1.4-1.8,1.8C429.1,414.9,428.6,414.3,429.4,412.9z"/>
		<path class="st12" d="M425.2,429.4c0,0,0.9,0.2,1.6,0.2c0,0-0.8,1.4-1.8,1.8C425,431.4,424.4,430.8,425.2,429.4z"/>
		<path class="st12" d="M420.8,435.6c0,0,0.8,0.7,1.6,0.9c0,0-0.1,1.2-0.7,1.9C421.7,438.5,420.7,438.4,420.8,435.6z"/>
		<path class="st12" d="M422.5,439.7c0,0,0.9,0.2,1.6,0.2c0,0-0.8,1.4-1.8,1.8C422.2,441.7,421.7,441.1,422.5,439.7z"/>
		<path class="st12" d="M420,449.2c0,0,0.9,0.2,1.6,0.2c0,0-0.8,1.6-1.8,2C419.7,451.3,419.2,450.5,420,449.2z"/>
		<path class="st12" d="M416.3,462.4c0,0,1,0.5,1.7,0.5c0,0-0.9,1.1-1.9,1.5C416.1,464.4,415.5,463.8,416.3,462.4z"/>
		<path class="st12" d="M429,406.8c0,0-2.4-1.3-4.8-0.5c-2.3,0.7-4.2,3-4.2,3s0.8-5.6,6.3-5.4l2.9,0.9L429,406.8z"/>
		<path class="st12" d="M427.4,403c0,0-2.4-2.5-4.9-2.3c0,0,2.6-1.7,5.6,0.2L427.4,403z"/>
		<path class="st12" d="M431.8,407.1c0,0,2.1-0.3,2.8,3c0.6,3.3,0.3,5.2,0.3,5.2s3.1-5.1,0.5-8.8l-2.5-0.7L431.8,407.1z"/>
		<path class="st12" d="M436.3,405.5c0,0,3.7-0.9,4.6,1.5c0,0,0.3-3.4-3.2-3.7L436.3,405.5z"/>
		<path class="st12" d="M414,471.8c0,0,0.9,0.2,1.6,0.2c0,0-0.9,1.6-1.9,1.9C413.7,473.9,413.3,473.2,414,471.8z"/>
		<path class="st13" d="M430.8,406.8c1.5,0.3,3.1,0.5,4.4-0.3c1-0.6,1.5-1.8,2.4-2.6c0.6-0.6,1.4-1,2.2-1.5s1.4-1.2,1.5-2.1
			c0-0.4-0.1-0.9,0-1.3c0.1-0.6,0.5-1.1,0.9-1.5c0.5-0.6,1-1.2,1.3-1.9c0.3-0.7,0.3-1.6-0.1-2.2c-0.2-0.3-0.5-0.5-0.6-0.8
			c-0.2-0.6,0-1.2-0.1-1.8c-0.2-0.7-0.9-1.1-1.5-1.2c-0.7-0.2-1.4-0.2-2-0.5c-0.5-0.2-0.9-0.6-1.4-0.9c-1.4-1-3.2-1.5-4.9-2
			c-0.4-0.1-0.8-0.2-1.3-0.2c-0.4,0.1-0.8,0.4-0.8,0.8c-0.9,0.7-2,1.2-3.2,1.2c-1,0-2.2-0.3-3.1,0.3c-1.3,0.8-1.2,2.8-0.4,4.1
			c0.3,0.6,0.8,1.2,0.6,1.9c-0.2,0.8-1.2,1.3-1.5,2.1c-0.4,1.1,0.8,2.1,1.9,2.7c0.3,0.2,0.6,0.3,0.7,0.6c0.1,0.2,0.1,0.5,0.2,0.8
			c0.1,1.8-0.1,4.1,1.5,5L430.8,406.8z"/>
		<path class="st14" d="M432.1,407.3c0,0,0.6,0.2,0.6-2.5s-0.5-3.9,0.4-4.4s5.6,0.5,8-2.6"/>
		<path class="st14" d="M442.5,393.4c0,0-1-0.5-2.7,0.3c-0.7,0.3-1.2,1.1-3.4,0.9s-5-0.2-5.7-1.9c-0.5-1.3,0.8-2.5,2.7-2.4
			c1.9,0.1,3.4,0.4,4.5,0.9c1.1,0.5,1.4,1.7,0.3,1.8s-3.6,0.1-4.7-0.4s-1.7-1.2,0.1-1.3c1.2-0.1,2.3,0.1,2.7,0.2
			c0.4,0.1,1,0.2,1,0.5c0,0.3-0.6,0.5-2,0.1"/>
		<path class="st14" d="M442.4,392.2c-1.1-1.3-2.5-1.8-4.1-2.5c-0.8-0.2-1.8,0-2.5-0.2c-0.6-0.2-1.2-0.5-1.8-0.9
			c-0.7-0.4-1.6-0.7-2.4-0.6c-0.8,0.1-1.6,0.7-1.7,1.6c-0.7-0.3-1.5-0.6-2.3-0.4s-1.5,0.8-1.4,1.6c0.1,0.6,0.5,1.1,0.3,1.6
			c-0.1,0.3-0.5,0.4-0.8,0.7c-0.9,0.7-0.7,2.3,0.3,2.7c0.2,0.1,0.5,0.2,0.6,0.4c0.2,0.3,0.1,0.6,0.1,0.9c0,0.8,0.8,1.4,1.5,1.8
			c0,0,1.4,0.6,3,0.4s3.9,0.1,3.9,0.1l4.5-0.6c0,0,2.2-0.7,2.6-1.9"/>
		<path class="st14" d="M432.9,390.3c-1.3,0-2.6,0.5-3.8,1.1c-0.7,0.3-1.3,0.8-1.7,1.5c-0.4,0.7-0.3,1.6,0.2,2.1
			c0.8,0.8,2.1,0.4,3.2,0.7c0.9,0.3,1.7,1.1,2.5,0.9c0.4-0.1,0.6-0.4,1-0.5c0.9-0.4,1.9,0.1,2.7,0.7c0.3,0.3,0.7,0.5,1.1,0.6
			c0.4,0,0.8-0.2,1.2-0.4c0.5-0.3,1-0.6,1.5-1c0.8-0.5,1.7-1.2,1.6-2.2c-0.1-0.4,0.4-0.6,0.2-0.9c-0.4-0.6-1.9-2.1-3.1-2.7"/>
	</g>
	<g>
		<path class="st12" d="M443.7,417.9c0.5-1.2,1.9-1.9,3.2-1.9s2.6,0.5,3.8,1.1c1,0.4,2,0.8,2.9,1.2c1,0.4,2.2,0.9,3.2,0.3
			c-0.6,1.3-1.1,2.7-1.7,4c-0.2,0.6-0.5,1.2-1,1.6c-1.1,1-2.8,0.5-4.3,0.5c-0.6,0-1.1,0.1-1.6,0.2c-1.2,0.1-2.4,0-3.5-0.5
			c-1.1-0.5-2-1.5-2.4-2.6L443.7,417.9z"/>
		<path class="st12" d="M443.8,416.7c-1.3-2.5-3.4-4.5-6-5.7c-0.5-0.2-0.9-0.4-1.4-0.5c-1.2-0.2-2.4,0.2-3.7,0.3
			c-1.2,0.1-2.7-0.1-3.3-1.2c0.4,1.1,1.4,1.8,2,2.9c0.6,1.2,0.4,2.7,0.7,4c0.3,1.6,1.4,3,2.7,4s2.9,1.6,4.4,2
			c0.4,0.1,0.8,0.2,1.2,0.1c0.5-0.1,0.9-0.5,1.4-0.4L443.8,416.7z"/>
		<path class="st12" d="M445.3,406c0,0-0.5,3.7-0.2,4.4c0.3,0.7-0.1,0.5-0.5,2.3c-0.4,1.8-15.5,39.5-15.6,40.4
			c-0.2,0.9-11.2,26.1-11.5,26.4c-0.2,0.3,2.4,1.3,3.6-0.1c1.2-1.4,2.4-7.2,2.7-8s5.3-14,6.4-16c1-2,11.8-30.7,12.4-32.3
			c0.7-1.5,4.2-11.9,4.7-11.9c0.5,0.1,2.8-2.4,3.2-3.5L445.3,406z"/>
		<path class="st12" d="M442.1,415.9c0,0,0.7,0.8,1.5,1.1c0,0-0.2,1.7-0.9,2.3C442.7,419.4,441.7,418.6,442.1,415.9z"/>
		<path class="st12" d="M431.6,443.7c0,0,0.7,0.8,1.5,1.1c0,0-0.2,1.2-0.9,1.8C432.2,446.6,431.2,446.4,431.6,443.7z"/>
		<path class="st12" d="M426.4,456.1c0,0,0.7,0.8,1.5,1.1c0,0-0.1,1.2-0.8,1.8C427,459.1,425.9,458.8,426.4,456.1z"/>
		<path class="st12" d="M422.4,464.3c0,0,0.9,0.7,1.7,1c0,0,0.1,0.7-0.5,1.6C423.6,467,422,467,422.4,464.3z"/>
		<path class="st12" d="M418.7,474.2c0,0,0.7,0.8,1.5,1.1c0,0-0.2,1.7-0.9,2.3C419.3,477.7,418.3,476.9,418.7,474.2z"/>
		<path class="st12" d="M445.6,414.1c0,0,0.9,0.3,1.5,0.3c0,0-0.9,1.3-2,1.6C445.1,416,444.6,415.4,445.6,414.1z"/>
		<path class="st12" d="M432.7,447.9c0,0,0.9,0.3,1.5,0.3c0,0-0.9,1.3-2,1.6C432.3,449.8,431.8,449.2,432.7,447.9z"/>
		<path class="st12" d="M435.1,434.4c0,0,0.7,0.8,1.5,1.1c0,0-0.2,1.2-0.9,1.8C435.7,437.4,434.7,437.2,435.1,434.4z"/>
		<path class="st12" d="M436.2,438.7c0,0,0.9,0.3,1.5,0.3c0,0-0.9,1.3-2,1.6C435.8,440.6,435.3,440,436.2,438.7z"/>
		<path class="st12" d="M429.6,455.4c0,0,0.9,0.3,1.5,0.3c0,0-1,1.5-2.1,1.8C429.1,457.5,428.7,456.7,429.6,455.4z"/>
		<path class="st12" d="M437.5,427.7c0,0,0.7,0.8,1.5,1.1c0,0-0.1,1.2-0.8,1.8C438.1,430.7,437,430.4,437.5,427.7z"/>
		<path class="st12" d="M440.7,427c0,0,0.9,0.3,1.5,0.3c0,0-1,1.5-2.1,1.8C440.2,429.1,439.8,428.3,440.7,427z"/>
		<path class="st12" d="M424.8,467.1c0,0,1,0.6,1.6,0.7c0,0-1,1-2.1,1.2C424.4,469,423.9,468.4,424.8,467.1z"/>
		<path class="st12" d="M446,408c0,0-2.3-1.6-4.7-1.1s-4.5,2.5-4.5,2.5s1.5-5.4,6.9-4.6l2.8,1.2L446,408z"/>
		<path class="st12" d="M444.8,404c0,0-2.1-2.8-4.6-2.9c0,0,2.8-1.4,5.6,0.9L444.8,404z"/>
		<path class="st12" d="M448.7,408.6c0,0,2.1,0,2.4,3.4c0.2,3.4-0.4,5.2-0.4,5.2s3.7-4.7,1.6-8.7l-2.4-1L448.7,408.6z"/>
		<path class="st12" d="M453.4,407.6c0,0,3.8-0.4,4.4,2.1c0,0,0.7-3.3-2.7-4.1L453.4,407.6z"/>
		<path class="st12" d="M422.5,473.6c0,0,0.9,0.3,1.5,0.3c0,0-1.1,1.5-2.1,1.7C422,475.7,421.6,474.9,422.5,473.6z"/>
		<path class="st13" d="M447.7,408.2c1.4,0.5,3.1,0.9,4.4,0.3c1.1-0.5,1.7-1.6,2.7-2.3c0.7-0.5,1.5-0.8,2.3-1.2
			c0.8-0.4,1.5-1,1.7-1.9c0.1-0.4,0.1-0.9,0.2-1.3c0.2-0.6,0.6-1,1-1.4c0.6-0.5,1.1-1.1,1.5-1.8c0.4-0.7,0.5-1.5,0.1-2.2
			c-0.2-0.3-0.4-0.6-0.5-0.9c-0.2-0.6,0.2-1.2,0.1-1.8c-0.1-0.7-0.7-1.2-1.4-1.4c-2-0.8-4-1.9-5.9-3c-0.4-0.2-0.8-0.4-1.2-0.6
			c-0.6-0.2-1.3-0.2-2,0.1c-0.4,0.2-0.7,0.4-1.2,0.4c-0.6,0.1-1.2-0.4-1.8-0.5c-0.8-0.2-1.5,0.3-2.3,0.2c-0.7,0-1.3-0.3-2,0
			c-1.1,0.5-1.8,2.5-2.2,3.6c-0.3,1.1-0.4,2.4,0.1,3.4c0.1,0.2,0.2,0.3,0.2,0.5c0,0.4-0.4,0.7-0.6,1.1c-0.6,0.8-0.2,2,0.4,2.8
			c0.3,0.4,0.8,0.8,1,1.3c0.4,0.7,0.4,1.5,0.6,2.3c0.3,1.4,1,2.3,2.2,3C446,407.3,446.9,407.9,447.7,408.2z"/>
		<path class="st14" d="M452.4,394c0.8,0.5,1.6,0.9,2.5,0.7c-0.9-0.7-2-1.3-3.1-1.6c-0.3-0.1-0.7-0.2-0.9,0.1
			c-0.2,0.2-0.2,0.5,0,0.8s0.4,0.4,0.7,0.5c1.4,0.8,2.8,1.4,4.3,1.8c0.3,0.1,0.6,0.1,0.9,0.1s0.5-0.4,0.5-0.7c0-0.2-0.2-0.4-0.4-0.5
			c-2.4-1.8-5.1-3.1-8-3.8c-0.4-0.1-0.9-0.2-1.3,0c-0.2,0.1-0.4,0.4-0.5,0.6c-0.2,0.5-0.3,1.1,0,1.5c0.5,0.5,1.3,0.2,2,0.5
			c0.8,0.4,1,1.5,1.7,2.1c0.8,0.7,2,0.4,3,0.7c0.2,0.1,0.5,0.2,0.6,0.4c0.1,0.1,0.2,0.3,0.3,0.5c0.4,0.5,1.1,0.5,1.7,0.3
			c0.6-0.2,1.2-0.4,1.8-0.2c0.5,0.2,1,0.8,1.5,0.6c0.2-0.1,0.3-0.2,0.4-0.3c0.5-0.6,1.1-1.4,0.8-2.1"/>
		<path class="st14" d="M456.2,396.5c0.7,0.4,1.7,0.4,2.4-0.1c0.7-0.5,0.8-1.6,0.3-2.3c-0.5-0.6-1.5-0.7-2.2-1c-1-0.5-1.7-1.4-2.7-2
			c-0.1-0.1-0.3-0.1-0.5-0.1c-0.2,0-0.3,0.1-0.4,0.1c-0.2,0-0.4-0.1-0.6-0.1c-0.6-0.3-1.2-0.6-1.8-0.9c-0.4-0.2-0.8-0.4-1.3-0.4
			c-0.4,0-0.8,0-1.1,0c-0.9,0.1-1.9-0.1-2.7-0.4c-0.6-0.2-1.2-0.5-1.7-0.2"/>
		<path class="st14" d="M447.9,391.4c-1.2,0-2.4,0.7-3,1.8c-0.1,0.3-0.3,0.6-0.2,0.9c0.1,0.4,0.5,0.7,1,0.9c0.4,0.1,0.9,0.2,1.3,0.4
			c0,0.9,0.6,1.6,1.4,2c0.8,0.4,1.7,0.5,2.5,0.5c0.9,0.1,1.7,0.2,2.5,0.7c0.5,0.3,0.9,0.9,1.5,1c0.8,0.2,1.6-0.2,2.4-0.2
			c0.6,0,1.2,0.3,1.8,0.4c0.6,0,2.1-0.2,2-0.9"/>
		<path class="st14" d="M442.5,391c0,2.6,0.6,3.6,1.5,4.6c0.1,0.2,1.4,0.8,1.4,1c0.1,0.4-0.1,0.9,0,1.3c0.1,0.4,0.5,0.6,0.8,0.8
			c1.3,0.6,2.9,0.5,4.1,1.3c0.3,0.2,0.5,0.4,0.8,0.5c0.4,0.1,0.8,0,1.2-0.1c0.6-0.1,1.2,0.1,1.8,0.2c0.5,0.1,1.1,0.3,1.5,0.6
			c0.4,0.4,0.6,1,0.2,1.4c-0.3,0.4-0.9,0.4-1.4,0.5s-1.1,0.5-0.9,1c0.1,0.2,0.2,0.3,0.3,0.5c0.1,0.2,0.1,0.5,0,0.8
			c-0.2,1-0.7,1.9-1.5,2.6"/>
		<path class="st15" d="M443.9,420.3c0.5-0.4,1.3-0.6,2-0.5c0.6,0.1,1.1,0.5,1.7,0.7c0.8,0.2,1.6,0.2,2.5,0.1
			c0.9-0.1,1.7-0.3,2.6-0.4"/>
		<path class="st15" d="M442,419.8c-0.4-0.5-0.8-1-1.2-1.4c-0.1-0.2-0.3-0.3-0.4-0.4c-0.2-0.1-0.5-0.1-0.8-0.2
			c-1.2-0.2-2.2-1.1-2.5-2.2c-0.1-0.2-0.1-0.4-0.2-0.5c-0.1-0.1-0.2-0.2-0.4-0.3c-0.4-0.2-0.9-0.5-1.3-0.7"/>
	</g>
	<g>
		<path class="st12" d="M455.5,426.3c0.7-1.1,0.4-2.7-0.4-3.7c-0.8-1.1-2-1.8-3.1-2.4c-0.9-0.5-1.8-1.1-2.8-1.6
			c-1-0.6-2-1.3-2.2-2.4c-0.7,1.2-1.5,2.5-2.2,3.7c-0.3,0.5-0.6,1.1-0.7,1.7c-0.1,1.5,1.3,2.5,2.2,3.7c0.3,0.5,0.6,1,0.8,1.4
			c0.6,1,1.5,1.9,2.5,2.5c1.1,0.6,2.4,0.7,3.5,0.3L455.5,426.3z"/>
		<path class="st12" d="M456.4,425.4c2.8-0.5,5.7,0,8.2,1.3c0.4,0.2,0.9,0.5,1.2,0.8c0.9,0.8,1.3,2.1,1.9,3.1s1.7,2.1,2.9,1.9
			c-1.1,0.4-2.3-0.1-3.5,0.1c-1.3,0.2-2.4,1.3-3.6,1.9c-1.5,0.7-3.2,0.7-4.8,0.2s-3-1.3-4.3-2.3c-0.3-0.2-0.7-0.5-0.8-0.9
			c-0.2-0.4-0.1-1-0.5-1.3L456.4,425.4z"/>
		<path class="st12" d="M464,417.9c0,0-2.7,2.6-3.4,2.8s-0.3,0.4-1.5,1.8c-1.2,1.4-12,20-12.6,20.7c-0.6,0.7-24.3,42.3-24.4,42.6
			c-0.1,0.4-2.5-1.1-2.1-2.9c0.4-1.8,4.3-6.3,4.7-7s18.1-30.2,19.1-32.3c0.9-2,7.1-11.8,8-13.2c0.8-1.4,7-10.6,6.6-10.9
			c-0.4-0.3,0.2-3.7,0.8-4.6L464,417.9z"/>
		<path class="st12" d="M458.1,426.3c0,0-1.1-0.1-1.8-0.5c0,0-1.3,1.2-1.3,2.1C454.9,427.9,456.1,428.3,458.1,426.3z"/>
		<path class="st12" d="M452.5,435.3c0,0-1.1-0.1-1.8-0.5c0,0-0.8,0.9-0.9,1.8C449.8,436.6,450.6,437.3,452.5,435.3z"/>
		<path class="st12" d="M444.6,448.9c0,0-1.1-0.1-1.8-0.5c0,0-0.9,0.8-0.9,1.8C441.9,450.1,442.7,450.9,444.6,448.9z"/>
		<path class="st12" d="M439.9,457.9c0,0-1.1-0.3-1.9-0.7c0,0-0.7,0.3-1,1.4C437,458.6,438,459.9,439.9,457.9z"/>
		<path class="st12" d="M425.7,481.5c0,0-1.1-0.1-1.8-0.5c0,0-1.3,1.2-1.3,2.1C422.6,483.1,423.8,483.5,425.7,481.5z"/>
		<path class="st12" d="M457.4,422.5c0,0-0.8-0.5-1.2-1c0,0-0.5,1.6-0.1,2.5C456.1,424,456.9,424,457.4,422.5z"/>
		<path class="st12" d="M448.4,437c0,0-0.8-0.5-1.2-1c0,0-0.5,1.6-0.1,2.5C447.2,438.5,448,438.5,448.4,437z"/>
		<path class="st12" d="M443.2,445.9c0,0-0.8-0.5-1.2-1c0,0-0.6,1.7-0.2,2.7C441.8,447.6,442.7,447.4,443.2,445.9z"/>
		<path class="st12" d="M436.2,457.7c0,0-1.1-0.4-1.5-0.9c0,0-0.2,1.4,0.3,2.4C434.9,459.2,435.7,459.2,436.2,457.7z"/>
		<path class="st12" d="M434,468.2c0,0-1.1-0.3-1.9-0.7c0,0-0.7,0.3-1,1.4C431.2,468.9,432.1,470.2,434,468.2z"/>
		<path class="st12" d="M430.3,468c0,0-1.1-0.4-1.5-0.9c0,0-0.2,1.4,0.3,2.4C429,469.5,429.8,469.5,430.3,468z"/>
		<path class="st12" d="M462,418.5c0,0,2.6,0.9,3.7,3.1s0.8,5.1,0.8,5.1s3.5-4.5-0.5-8.3l-2.7-1.5L462,418.5z"/>
		<path class="st12" d="M465.9,417.1c0,0,3.4,0,5.1,1.9c0,0-0.5-3.1-4.1-3.9L465.9,417.1z"/>
		<path class="st12" d="M459.9,416.7c0,0-1.3-1.7-4.1,0.1s-3.9,3.4-3.9,3.4s1.6-5.8,6-6.5l2.3,1.3L459.9,416.7z"/>
		<path class="st12" d="M457.9,412.4c0,0-2-3.3-4.3-2.3c0,0,2.3-2.6,4.9-0.3L457.9,412.4z"/>
		<path class="st12" d="M423.9,478.1c0,0-0.8-0.5-1.2-1c0,0-0.5,1.7-0.1,2.7C422.6,479.8,423.4,479.6,423.9,478.1z"/>
		<path class="st13" d="M460.8,417.2c-1.2-0.9-2.6-1.9-2.9-3.4c-0.2-1.2,0.2-2.3,0.2-3.5c0-0.9-0.3-1.7-0.4-2.6
			c-0.1-0.9-0.1-1.8,0.5-2.5c0.3-0.3,0.7-0.6,0.9-0.9c0.4-0.5,0.4-1.1,0.5-1.7c0.1-0.8,0.2-1.6,0.5-2.3c0.3-0.7,0.9-1.3,1.7-1.4
			c0.3-0.1,0.7,0,1-0.1c0.6-0.2,0.9-0.9,1.4-1.2c0.6-0.3,1.4-0.1,2,0.3c1.9,1.2,3.9,2,5.9,2.9c0.4,0.2,0.8,0.3,1.2,0.6
			c0.5,0.4,0.9,1,1.1,1.6c0.1,0.4,0.1,0.8,0.3,1.2c0.3,0.5,1,0.7,1.5,1.1c0.6,0.5,0.7,1.4,1.2,1.9c0.5,0.5,1,0.8,1.2,1.6
			c0.3,1.2-0.9,3-1.6,3.9c-0.7,0.9-1.6,1.7-2.8,1.9c-0.2,0-0.4,0.1-0.5,0.2c-0.4,0.2-0.4,0.7-0.5,1.1c-0.3,0.9-1.5,1.4-2.4,1.3
			c-0.6,0-1.1-0.1-1.7-0.1c-0.8,0.1-1.5,0.5-2.2,0.9c-1.3,0.6-2.5,0.6-3.7,0C462.6,418,461.5,417.7,460.8,417.2z"/>
		<path class="st14" d="M469.4,405c-0.9-0.3-1.7-0.7-2.1-1.6c1.1,0.3,2.2,0.8,3.2,1.5c0.3,0.2,0.5,0.4,0.5,0.7
			c0,0.3-0.3,0.5-0.6,0.5c-0.3,0-0.6-0.1-0.8-0.2c-1.4-0.6-2.8-1.4-4-2.4c-0.2-0.2-0.5-0.4-0.6-0.7s0-0.7,0.2-0.8
			c0.2-0.1,0.4,0,0.6,0c2.9,0.8,5.6,2.2,7.8,4.1c0.3,0.3,0.7,0.6,0.7,1c0,0.3-0.1,0.5-0.2,0.8c-0.2,0.5-0.7,0.9-1.2,0.8
			c-0.7-0.1-1-0.9-1.6-1.3c-0.8-0.5-1.8,0.1-2.7-0.1c-1-0.2-1.5-1.4-2.4-2c-0.2-0.1-0.4-0.3-0.6-0.3c-0.2,0-0.4,0.1-0.6,0
			c-0.6,0-1-0.6-1.3-1.2c-0.2-0.6-0.4-1.2-0.9-1.5c-0.5-0.3-1.2-0.3-1.4-0.9c-0.1-0.2,0-0.4,0-0.6c0.1-0.8,0.4-1.7,1.2-1.9"/>
		<path class="st14" d="M465.1,403.4c-0.8-0.3-1.4-1.1-1.4-2c0-0.8,0.8-1.6,1.6-1.6c0.8,0.1,1.4,0.8,2.1,1.2c1,0.5,2.2,0.5,3.2,0.9
			c0.1,0.1,0.3,0.2,0.4,0.3c0.1,0.1,0.1,0.3,0.1,0.4c0.1,0.2,0.3,0.3,0.5,0.4c0.6,0.3,1.2,0.6,1.8,0.9c0.4,0.2,0.8,0.4,1.1,0.7
			c0.3,0.3,0.5,0.6,0.7,0.9c0.5,0.8,1.2,1.4,2,1.9c0.5,0.3,1.1,0.7,1.2,1.2"/>
		<path class="st14" d="M474.2,407c0.7,1,0.9,2.4,0.3,3.5c-0.1,0.3-0.3,0.6-0.6,0.7c-0.4,0.2-0.9,0-1.3-0.2s-0.7-0.6-1.1-0.8
			c-0.7,0.6-1.7,0.5-2.4,0.1c-0.8-0.4-1.4-1.1-1.9-1.7c-0.6-0.6-1.2-1.3-2-1.5c-0.6-0.2-1.3-0.2-1.8-0.6c-0.6-0.5-0.8-1.4-1.3-2
			c-0.4-0.5-1-0.8-1.4-1.2c-0.4-0.5-1.1-1.8-0.5-2.1"/>
		<path class="st14" d="M477.7,411.1c-2,1.5-3.3,1.7-4.6,1.6c-0.2,0-1.5-0.6-1.7-0.5c-0.4,0.1-0.6,0.6-1,0.8c-0.4,0.2-0.8,0-1.1-0.2
			c-1.2-0.7-2.1-2-3.5-2.5c-0.3-0.1-0.7-0.1-0.9-0.4c-0.3-0.3-0.5-0.7-0.7-1c-0.3-0.5-0.8-0.9-1.2-1.3c-0.4-0.3-0.9-0.7-1.4-0.8
			c-0.5-0.1-1.2,0.2-1.3,0.7c-0.1,0.5,0.2,1,0.4,1.4s0.3,1.2-0.2,1.4c-0.2,0.1-0.4,0-0.6,0.1c-0.3,0.1-0.5,0.2-0.7,0.4
			c-0.7,0.8-1.1,1.8-1.1,2.8"/>
		<path class="st15" d="M453.5,427.6c0-0.7-0.3-1.4-0.8-1.8c-0.5-0.4-1.1-0.6-1.6-1c-0.7-0.5-1.1-1.2-1.5-1.9
			c-0.4-0.8-0.8-1.5-1.2-2.3"/>
		<path class="st15" d="M455,428.8c0.6,0,1.2,0,1.9,0.1c0.2,0,0.4,0,0.6,0.1c0.2,0.1,0.4,0.3,0.6,0.5c0.9,0.8,2.2,1.1,3.3,0.7
			c0.2-0.1,0.4-0.2,0.6-0.1c0.2,0,0.3,0.1,0.5,0.1c0.5,0.2,0.9,0.4,1.4,0.6"/>
	</g>
	<g>
		<path class="st12" d="M437.2,426.9c1.1-0.7,1.3-2.2,0.8-3.4c-0.5-1.2-1.4-2-2.4-2.9c-0.9-0.9-1.8-1.8-2.1-3
			c-0.2-0.7-0.1-1.5,0.2-2.2c-2.1,2.2-4.2,4.6-5.1,7.4c-0.2,0.6-0.3,1.2-0.3,1.8c0.1,1,0.7,2,1.5,2.6c0.8,0.6,1.8,1,2.8,1.2
			c1.2,0.2,2.4,0.2,3.6,0c0.4-0.1,0.9-0.2,1-0.6L437.2,426.9z"/>
		<path class="st15" d="M436.8,427c-0.6-1.1-1.6-1.9-2.8-2.2c-0.3-0.1-0.6-0.1-0.9-0.3c-0.3-0.2-0.5-0.6-0.6-1
			c-0.4-0.9-0.8-1.9-0.3-2.7"/>
		<path class="st12" d="M436.3,430.4c-0.2,1,0.9,1.7,1.8,2.1c1.7,0.7,3.6,1.5,5.4,1c0.9-0.3,1.6-0.8,2.5-1c1.4-0.3,2.8,0.2,4,0.9
			c1.2,0.7,2.4,1.5,3.8,1.7c-1.5-0.5-2.3-2-2.9-3.5c-0.6-1.5-1.1-3-2.3-4c-2.1-1.7-5.1-0.8-7.7-1.4c-0.5-0.1-1-0.3-1.6-0.2
			c-0.9,0.2-1.4,1.2-1.6,2.1L436.3,430.4z"/>
		<path class="st15" d="M437.2,427.8c0.6,0.4,1.2,0.9,2,1c0.4,0.1,0.9,0.1,1.4,0c1.3-0.2,2.5-0.5,3.8-0.5c1.3,0,2.6,0.4,3.4,1.4"/>
		<path class="st12" d="M445.7,416.7c0,0-2.4,2.9-3.1,3.2c-0.7,0.3-0.3,0.4-1.3,1.9c-1.1,1.6-15.5,39-16.1,39.8
			c-0.5,0.8-11.2,26.1-11.3,26.5c-0.1,0.4-2.6-0.8-2.4-2.6c0.2-1.8,3.6-6.7,3.9-7.5s6.5-13.5,7.2-15.6c0.7-2.1,11.7-30.3,12.3-31.8
			c0.7-1.5,5.8-11.3,5.4-11.6c-0.4-0.3-0.2-3.7,0.3-4.7L445.7,416.7z"/>
		<path class="st12" d="M440.7,425.7c0,0-1.1,0-1.9-0.3c0,0-1.1,1.3-1.1,2.3C437.8,427.7,439,427.9,440.7,425.7z"/>
		<path class="st12" d="M436.9,435.4c0,0-1.1,0-1.9-0.3c0,0-0.7,1-0.7,1.9C434.4,437.1,435.3,437.6,436.9,435.4z"/>
		<path class="st12" d="M424.9,465.4c0,0-1.1,0-1.9-0.3c0,0-0.8,0.9-0.7,1.8C422.3,467,423.2,467.6,424.9,465.4z"/>
		<path class="st12" d="M421.7,473.9c0,0-1.2-0.2-1.9-0.5c0,0-0.6,0.4-0.8,1.5C418.9,474.9,420,476.1,421.7,473.9z"/>
		<path class="st12" d="M417,483.4c0,0-1.1,0-1.9-0.3c0,0-1.1,1.3-1.1,2.3C414.1,485.4,415.3,485.6,417,483.4z"/>
		<path class="st12" d="M439.6,422c0,0-0.9-0.4-1.3-0.9c0,0-0.3,1.6,0.2,2.5C438.5,423.7,439.3,423.6,439.6,422z"/>
		<path class="st12" d="M433,437.4c0,0-0.9-0.4-1.3-0.9c0,0-0.3,1.6,0.2,2.5C431.9,439,432.7,438.9,433,437.4z"/>
		<path class="st12" d="M423.1,462.6c0,0-0.9-0.4-1.3-0.9c0,0-0.4,1.8,0.1,2.7C422,464.4,422.8,464.1,423.1,462.6z"/>
		<path class="st12" d="M430.5,451.1c0,0-1.1,0-1.9-0.3c0,0-0.8,0.9-0.7,1.8C427.9,452.7,428.8,453.3,430.5,451.1z"/>
		<path class="st12" d="M428.8,448.3c0,0-0.9-0.4-1.3-0.9c0,0-0.4,1.8,0.1,2.7C427.6,450.1,428.5,449.8,428.8,448.3z"/>
		<path class="st12" d="M417.9,474.1c0,0-1.1-0.3-1.6-0.7c0,0,0,1.4,0.5,2.3C416.8,475.8,417.6,475.7,417.9,474.1z"/>
		<path class="st12" d="M443.8,417.5c0,0,2.7,0.6,4,2.6c1.3,2.1,1.3,5,1.3,5s2.9-4.8-1.4-8.2l-2.8-1.2L443.8,417.5z"/>
		<path class="st12" d="M447.5,415.7c0,0,3.4-0.4,5.3,1.3c0,0-0.9-3-4.5-3.4L447.5,415.7z"/>
		<path class="st12" d="M441.5,416c0,0-1.5-1.6-4.1,0.6c-2.6,2.1-3.5,3.8-3.5,3.8s0.9-6,5.2-7.2l2.4,1L441.5,416z"/>
		<path class="st12" d="M439,411.9c0,0-2.3-3-4.5-1.8c0,0,1.9-2.8,4.8-0.8L439,411.9z"/>
		<path class="st12" d="M414.8,480.3c0,0-0.9-0.4-1.3-0.9c0,0-0.3,1.8,0.2,2.7C413.7,482.1,414.5,481.8,414.8,480.3z"/>
		<path class="st13" d="M442.4,416.4c-1.3-0.7-2.8-1.6-3.2-3c-0.4-1.1,0-2.3-0.2-3.5c-0.1-0.9-0.5-1.7-0.7-2.5s-0.3-1.8,0.2-2.5
			c0.2-0.4,0.6-0.6,0.8-1c0.3-0.5,0.3-1.1,0.3-1.7c0-0.8,0-1.6,0.3-2.3c0.3-0.7,0.8-1.4,1.5-1.6c0.3-0.1,0.7-0.1,1-0.3
			c0.5-0.3,0.8-1,1.3-1.3c0.6-0.4,1.4-0.3,2,0c0.6,0.3,1.2,0.7,1.9,0.9c0.5,0.1,1.1,0.1,1.6,0.2c1.8,0.1,3.4,0.8,5,1.5
			c0.4,0.2,0.8,0.3,1.1,0.7c0.3,0.3,0.4,0.8,0.1,1.2c0.2,1.1,0.8,2.2,1.7,3c0.8,0.7,1.8,1.2,2.2,2.1c0.5,1.4-0.8,2.9-2.3,3.4
			c-0.6,0.2-1.4,0.4-1.7,1c-0.4,0.8,0.1,1.7-0.2,2.5c-0.4,1.1-2,1.1-3.2,0.9c-0.3-0.1-0.7-0.1-1,0c-0.3,0.1-0.5,0.3-0.6,0.5
			c-1.3,1.3-2.6,3.2-4.4,2.8L442.4,416.4z"/>
		<path class="st14" d="M441.1,415.9c0,0-0.6-0.2,1.1-2.3s2.9-2.7,2.5-3.7c-0.4-1-4.6-3.2-4.5-7.1"/>
		<path class="st14" d="M442,398.7c0,0,1.1,0.2,1.9,2c0.3,0.7,0.3,1.6,2.1,2.9c1.8,1.2,4,3.1,5.6,2.2c1.2-0.7,1-2.4-0.6-3.5
			s-2.8-1.8-4-2.2c-1.2-0.3-2.2,0.4-1.4,1.2c0.8,0.8,2.7,2.4,3.8,2.6c1.1,0.3,2,0.1,0.8-1.1c-0.9-0.9-1.8-1.3-2.2-1.5
			c-0.4-0.2-0.9-0.4-1.1-0.3c-0.2,0.2,0.1,0.7,1.5,1.4"/>
		<path class="st14" d="M442.8,397.7c1.7-0.3,3.1,0.2,4.7,0.7c0.7,0.4,1.4,1.1,2,1.4s1.3,0.4,1.9,0.5c0.8,0.2,1.7,0.5,2.2,1.1
			c0.6,0.6,0.8,1.6,0.3,2.3c0.7,0.3,1.5,0.5,2,1.1s0.7,1.6,0.1,2.1c-0.4,0.4-1.1,0.5-1.3,1.1c-0.1,0.3,0.1,0.7,0.2,1
			c0.3,1.1-0.9,2.2-2,1.9c-0.2-0.1-0.5-0.2-0.7-0.1c-0.3,0.1-0.4,0.4-0.6,0.7c-0.5,0.6-1.5,0.6-2.3,0.5c0,0-1.5-0.5-2.6-1.6
			s-3.1-2.4-3.1-2.4l-3.1-3.3c0,0-1.2-2-0.7-3.1"/>
		<path class="st14" d="M451.4,402.3c1,0.9,1.7,2,2.2,3.3c0.3,0.7,0.5,1.5,0.3,2.2c-0.2,0.7-0.7,1.4-1.5,1.5
			c-1.1,0.1-1.9-1.1-2.9-1.5c-0.9-0.3-2-0.2-2.5-0.9c-0.2-0.3-0.3-0.7-0.4-1c-0.4-0.9-1.5-1.1-2.5-1.2c-0.4,0-0.9,0-1.2-0.3
			c-0.4-0.2-0.5-0.7-0.6-1.1c-0.2-0.6-0.4-1.1-0.6-1.7c-0.3-0.9-0.5-2,0.2-2.7c0.3-0.3,0.1-0.7,0.4-0.8c0.7-0.2,2.8-0.4,4.2-0.1"/>
	</g>
	<path class="st17" d="M424.6,421.3c0.2,2.6,2.5,4.3,4.7,5.5c6.1,3.4,12.7,5.9,19.5,7.6c1.6,0.4,3.6,0.6,4.6-0.8
		c-0.1,4.3-3.4,7.8-6,11.3c-2.7,3.5-5.1,7.3-7,11.3c-3,6.4-4.9,13.5-8.6,19.5c-2.8,4.5-7.4,8.8-12.4,8c-4-0.6-6.7-4.3-9-7.7
		c-0.5-0.8-1.1-1.6-1.3-2.6c-0.3-1-0.2-2.1-0.1-3.1c0.7-6.1,2.8-12,4.8-17.8c2.9-8.4,5.7-17,7.1-25.8c0.3-1.8,0.8-4,2.5-4.7
		L424.6,421.3z"/>
	<path class="st18" d="M424.6,421.3c0.2,2.6,2.5,4.3,4.7,5.5c6.1,3.4,12.7,5.9,19.5,7.6c1.6,0.4,3.6,0.6,4.6-0.8
		c-0.1,4.3-3.4,7.8-6,11.3c-2.7,3.5-5.1,7.3-7,11.3c-3,6.4-4.9,13.5-8.6,19.5c-2.8,4.5-7.4,8.8-12.4,8c-4-0.6-6.7-4.3-9-7.7
		c-0.5-0.8-1.1-1.6-1.3-2.6c-0.3-1-0.2-2.1-0.1-3.1c0.7-6.1,2.8-12,4.8-17.8c2.9-8.4,5.7-17,7.1-25.8c0.3-1.8,0.8-4,2.5-4.7
		L424.6,421.3z"/>
</g>
<g>
	<path class="st3" d="M445,467c-0.5,0.8-1.3,1.5-2.3,2c-1.5,0.7-3.6,1.2-7.8,0.9c-1.4-0.1-3.1,0.6-4.5,0.4c0,0-1.3-0.1-1.2-0.7
		c0.1-1.2,2.4-1.3,3.9-1.5c0.6-0.1,1.3-0.2,1.4-0.8c0-0.3-0.1-0.5-0.8-0.7c-0.9-0.2-5.7,0.3-5.8-0.9c-0.1-1.3,2.3-1.3,4.9-1.5
		c0.8,0,1.3-0.1,1.6-0.1c0.7-0.1,0.5-0.7,0.5-0.7c0-0.3-0.2-0.4-0.8-0.6c-0.9-0.2-2.4-0.3-3.9-0.5c-2.2-0.3-4.1-0.5-3.8-1.9
		c0.3-1.5,7.8-0.1,7.8-0.1s1.5,0.5,1.6-0.5c0.1-0.5-0.4-0.6-1.1-0.9c-1.6-0.6-4.6-1.3-4.6-1.3s-2-0.6-1.7-1.5c0.3-1,1-1.7,6.2,0.3
		c5.2,1.9,5.5,1.5,5.9,1c0.3-0.4,0.7-1-0.7-2.5c-1.4-1.5-1.1-2.3-0.5-2.7c0.8-0.5,2.7,0.7,4.8,3.8c0.9,1.3,2.2,3.3,2.5,5.6
		C446.6,461.2,447.1,463.7,445,467z"/>
	<path class="st4" d="M445,467c-0.5,0.8-1.3,1.5-2.3,2c-1.5,0.7-3.6,1.2-7.8,0.9c-1.4-0.1-3.1,0.6-4.5,0.4c0,0-1.3-0.1-1.2-0.7
		c0.1-1.2,2.4-1.3,3.9-1.5c0.6-0.1,1.3-0.2,1.4-0.8c0-0.3-0.1-0.5-0.8-0.7c-0.9-0.2-5.7,0.3-5.8-0.9c-0.1-1.3,2.3-1.3,4.9-1.5
		c0.8,0,1.3-0.1,1.6-0.1c0.7-0.1,0.5-0.7,0.5-0.7c0-0.3-0.2-0.4-0.8-0.6c-0.9-0.2-2.4-0.3-3.9-0.5c-2.2-0.3-4.1-0.5-3.8-1.9
		c0.3-1.5,7.8-0.1,7.8-0.1s1.5,0.5,1.6-0.5c0.1-0.5-0.4-0.6-1.1-0.9c-1.6-0.6-4.6-1.3-4.6-1.3s-2-0.6-1.7-1.5c0.3-1,1-1.7,6.2,0.3
		c5.2,1.9,5.5,1.5,5.9,1c0.3-0.4,0.7-1-0.7-2.5c-1.4-1.5-1.1-2.3-0.5-2.7c0.8-0.5,2.7,0.7,4.8,3.8c0.9,1.3,2.2,3.3,2.5,5.6
		C446.6,461.2,447.1,463.7,445,467z"/>
</g>
<g>
	<path class="st3" d="M168.4,467.2c0.3,0.9,0.8,1.8,1.7,2.5c1.3,1.1,3.2,2.1,7.3,2.9c1.3,0.3,2.8,1.4,4.3,1.5c0,0,1.3,0.2,1.4-0.4
		c0.2-1.2-2-1.9-3.4-2.5c-0.5-0.2-1.2-0.5-1.1-1.1c0.1-0.3,0.3-0.5,1-0.5c0.9,0,5.4,1.8,5.8,0.6c0.4-1.3-1.9-1.9-4.4-2.7
		c-0.7-0.2-1.2-0.4-1.5-0.5c-0.7-0.3-0.3-0.8-0.3-0.8c0.1-0.3,0.3-0.4,0.9-0.3c0.9,0,2.4,0.4,3.8,0.5c2.2,0.3,4.1,0.6,4.2-0.9
		c0.1-1.6-7.5-2.2-7.5-2.2s-1.6,0.1-1.4-0.9c0-0.5,0.6-0.5,1.3-0.6c1.7-0.2,4.8,0,4.8,0s2.1,0,2-1c0-1-0.5-1.9-6-1.4
		c-5.5,0.5-5.7,0-5.9-0.6c-0.2-0.4-0.4-1.1,1.4-2.3c1.7-1.1,1.7-2,1.2-2.5c-0.6-0.7-2.8,0-5.6,2.4c-1.2,1-3,2.6-3.9,4.7
		C168.4,461.2,167.2,463.5,168.4,467.2z"/>
	<path class="st4" d="M168.4,467.2c0.3,0.9,0.8,1.8,1.7,2.5c1.3,1.1,3.2,2.1,7.3,2.9c1.3,0.3,2.8,1.4,4.3,1.5c0,0,1.3,0.2,1.4-0.4
		c0.2-1.2-2-1.9-3.4-2.5c-0.5-0.2-1.2-0.5-1.1-1.1c0.1-0.3,0.3-0.5,1-0.5c0.9,0,5.4,1.8,5.8,0.6c0.4-1.3-1.9-1.9-4.4-2.7
		c-0.7-0.2-1.2-0.4-1.5-0.5c-0.7-0.3-0.3-0.8-0.3-0.8c0.1-0.3,0.3-0.4,0.9-0.3c0.9,0,2.4,0.4,3.8,0.5c2.2,0.3,4.1,0.6,4.2-0.9
		c0.1-1.6-7.5-2.2-7.5-2.2s-1.6,0.1-1.4-0.9c0-0.5,0.6-0.5,1.3-0.6c1.7-0.2,4.8,0,4.8,0s2.1,0,2-1c0-1-0.5-1.9-6-1.4
		c-5.5,0.5-5.7,0-5.9-0.6c-0.2-0.4-0.4-1.1,1.4-2.3c1.7-1.1,1.7-2,1.2-2.5c-0.6-0.7-2.8,0-5.6,2.4c-1.2,1-3,2.6-3.9,4.7
		C168.4,461.2,167.2,463.5,168.4,467.2z"/>
</g>
<path class="st11" d="M208.9,459.7c0,0-0.8,8.1-2.2,11.4c0,0-1.2-0.3-3.2-0.3s-3.9-0.7-5.9,0.7c0,0,3.4-4.9,4.4-6.8
	c1-1.9,2.5-7.8,2.5-7.8L208.9,459.7z"/>
<path class="st11" d="M208.1,459.5c0,0,2,6.8,7.8,10.3c0,0,0.3-1.7,2.2-2c1.9-0.3,3.1-2.5,3.1-2.5s-4.6-2.4-5.1-4.2
	c-0.5-1.9-4.7-3.4-6.3-3.7c-1.5-0.3-2,1-2,1L208.1,459.5z"/>
<path class="st11" d="M205.9,452.5c0,0-3.7-2.4-7.6-2.5c-3.9-0.2-6.4,0.4-8.3,1.5c-3.4,2-1.4,5.1-1.4,5.1s1.4,1.9,2.2,3.4
	c0.8,1.5,1.9,3.4,2.7,3.7c0.8,0.3,1.4,0.8,3.7-0.3c2.4-1.2,7.3-1.5,9-3.7l1.5-1.4L205.9,452.5z"/>
<path class="st11" d="M209.9,452c0,0,2.4-5.8,9.2-8c0,0,2.4-0.9,3.4,0.5c1.7,2.4-0.4,7.6,0.3,9.5c0.7,1.9,0.7,1.9,0.7,1.9
	s1.2,2.3-2.4,2.3s-8.1,1.1-10.7,0.2L209.9,452z"/>
<circle class="st11" cx="208.1" cy="454.6" r="4.9"/>
<path class="st10" d="M203.3,455.4c0,0-2.4-0.8-4.6-0.8s-2.5-0.1-3.7,0.8c-1.2,0.9-1.8,1.8-1.8,1.8s7.9,0.7,10.3-0.4L203.3,455.4z"
	/>
<path class="st10" d="M213,453.8c0,0,1.9-2,3.6-2.3s3.1,0.4,3.1,0.4s-4.4,1.1-6.4,3.1L213,453.8z"/>
<path class="st10" d="M205.3,461.9c0,0,0.2,1.4-0.6,3c0,0,1.8-2.2,1.9-3.7L205.3,461.9z"/>
<path class="st10" d="M210.7,460.2c0,0,1.8,2.9,3.1,3.8c0,0-1.6-3.1-1.5-4.4L210.7,460.2z"/>
<path class="st9" d="M448.3,60.9c-6.4-5.9-14.2-11.8-22.8-10.3c-6.9,1.3-12.1,7.8-12.8,14.7c-0.7,6.9,2.9,13.9,8.4,18.2
	c7.7,6.1,18.3,7.2,26.1,13c7.7,5.8,11.6,16.1,9.8,25.5c8.3-14.2,14.4-29.7,17.8-45.8c1.7-7.8,2.7-16.3-0.7-23.6s-12.5-12.4-19.6-8.7
	C447.4,47.7,445.9,52.6,448.3,60.9z"/>
<path class="st9" d="M497.4,31.4c-0.2-2.2-1.8-4.1-3.9-4.7c-2.1-0.6-4.6,0.2-5.9,2c-2,2.8-1,6.8,1,9.7c2,2.8,4.8,5,6.7,7.9
	c2.4,3.7,3,8.2,3.6,12.6c4.5-8.1,8-16.7,10.3-25.6c0.9-3.5,1.2-8.1-1.9-9.8c-2-1.1-4.6-0.5-6.3,1C499.1,26,498.3,29.3,497.4,31.4
	C497.1,32.2,496.6,31.2,497.4,31.4z"/>
<path class="st9" d="M501.5,115.3c0-2.9,0.1-5.6-0.9-8.4c-1-2.8-3-5.3-5.9-6c-4.3-1-8.6,2.5-10,6.7c-1.4,4.2-0.8,8.7-0.3,13.1
	c1.2,11.1,1.4,22.4,0.3,33.5c1.4-4.4,5-7.8,8.8-10.3s8.1-4.4,11.9-7c6.5-4.5,13.3-8.3,15.6-15.9c0.4-1.4,3.1-10.2-5.5-12.6
	c-2.9-0.8-5.6-0.2-8.6,0.4C504.2,109.5,501.6,112.3,501.5,115.3z"/>
</svg>
